<?xml version="1.0" encoding="utf-8"?>
<!-- Generator: Adobe Illustrator 22.0.1, SVG Export Plug-In . SVG Version: 6.00 Build 0)  -->
<svg version="1.1" id="Layer_1" xmlns="http://www.w3.org/2000/svg" xmlns:xlink="http://www.w3.org/1999/xlink" x="0px" y="0px"
	 viewBox="0 0 1280 1024" style="enable-background:new 0 0 1280 1024;" xml:space="preserve">
<style type="text/css">
	.st0{stroke:#000000;stroke-miterlimit:10;}
	.st1{fill:none;stroke:#000000;stroke-miterlimit:10;}
	.st2{fill-rule:evenodd;clip-rule:evenodd;}
</style>
<g>
	<path d="M991,563.2c0.7-0.1,1.4-0.2,2-0.2c-0.2-0.5-0.5-1-0.9-1.4c0,0.1-0.1,0.3-0.1,0.4C991.8,562.5,991.4,562.9,991,563.2z"/>
	<path d="M992.1,561.6c0,0.1-0.1,0.3-0.1,0.4c-0.2,0.5-0.6,0.9-1,1.2c0.7-0.1,1.4-0.2,2-0.2C992.8,562.5,992.5,562,992.1,561.6
		L992.1,561.6z"/>
</g>
<g>
	<path d="M1181.5,588.5C1181.5,588.5,1181.5,588.5,1181.5,588.5C1181.6,588.6,1181.6,588.6,1181.5,588.5z"/>
	<path d="M1181.5,588.5C1181.5,588.5,1181.5,588.5,1181.5,588.5C1181.5,588.5,1181.6,588.6,1181.5,588.5
		C1181.6,588.6,1181.5,588.5,1181.5,588.5L1181.5,588.5z"/>
</g>
<g>
	<path d="M1189,537.5c-3.5,0-7.2-0.2-10.7-0.3c-3.7-0.1-7.5-0.3-11.2-0.3c-2,0-3.9,0-5.7,0.1V398.4c1.1,1,2.6,1.4,4.7,1.4
		c2.3,0,4.8-0.6,7.1-1.2c1.6-0.2,3.2-0.6,4.9-1.2l-0.2-1c-1.2,0.2-2.5,0.5-3.9,0.9l-1,0.2c-0.8,0.1-1.6,0.2-2.4,0.2
		c-3.2,0-6.2-0.8-9-2.5V231.1c1.6,0.6,3.2,1.3,4.8,2c2.1,0.9,3.7,1.7,4.8,2.2c1.1,0.5,1.8,0.9,2.2,1c0.8,0.3,1.5,0.4,2.2,0.6
		l0.3,0.1c1.8,0.4,3.7,0.8,5.5,1c0.5,0,3.1-0.1,5.2-0.6c0.6-0.2,1.7-0.4,3-1l0.1-0.1c0.8-0.4,1.6-0.9,2.3-1.5l0,55.3
		c-2.1,3.2-6.1,4.7-12.3,4.7c-3.5,0-7.3-0.5-10.6-0.9c-1.4-0.2-2.7-0.3-4-0.5l-1.4-0.1l1,1c3.5,3.5,8.6,5.3,14.8,5.3
		c4.1,0,8.5-0.8,12.5-2.3l-0.1,210.2c-3.1,2.6-6.6,4.9-10.8,4.9v1c1.4,0,2.7,0.1,4,0.2c1.3,0.1,2.5,0.2,3.7,0.2
		c1.2,0,2.2-0.1,3.1-0.4l0,20.6C1191,535.4,1190,536.5,1189,537.5z M1162.2,443.9l6,4l0,0c2.7,1.1,5.6,1.6,8.3,1.6
		c1.7,0,3.4-0.2,5-0.6c5.1-1.3,9-4.4,9.3-5.2l0.1-0.2l-0.1-0.3c-0.1-0.2-0.3-0.3-0.5-0.3c-0.2,0-0.5,0.1-1.2,0.4
		c-1,0.4-2.6,1.1-4.9,1.6c-3.4,0.9-6.3,1-8.1,1c0,0,0,0,0,0c-0.8,0-1.4,0-1.7-0.1c-2-0.1-4-0.5-5.9-1c-1.4-0.2-2.7-0.5-3.9-1
		c-0.7-0.3-1.3-0.6-1.9-1L1162.2,443.9z"/>
	<path d="M1162,231.8c1.4,0.6,2.7,1.1,4.1,1.8c2.1,0.9,3.7,1.7,4.8,2.2c1.2,0.6,1.9,0.9,2.3,1c0.8,0.3,1.6,0.4,2.3,0.6l0.3,0.1
		c1.8,0.4,3.7,0.8,5.6,1l0.1,0l0.1,0c0.5,0,3.1-0.1,5.2-0.6c0.7-0.2,1.7-0.4,3.1-1.1l0.1-0.1c0.5-0.3,1-0.6,1.5-0.9l0,54.2
		c-2,3-5.8,4.4-11.8,4.4c-3.5,0-7.2-0.5-10.6-0.9c-1.4-0.2-2.7-0.3-4-0.5l-2.8-0.3l2,2c3.5,3.5,8.8,5.4,15.2,5.4
		c3.9,0,8.1-0.7,12-2.1l-0.1,145c-0.2-0.3-0.5-0.5-0.9-0.5c-0.3,0-0.7,0.1-1.4,0.4c-1,0.4-2.6,1.1-4.8,1.6c-3.3,0.8-6.2,1-8,1
		c-0.6,0-1.1,0-1.7-0.1c-2-0.1-3.9-0.5-5.8-1l-0.1,0l-0.1,0c-1.3-0.1-2.5-0.4-3.7-0.9c-0.6-0.3-1.3-0.6-1.9-0.9l-1,1.6v-44.9
		c1.1,0.6,2.5,1,4.2,1c2.3,0,4.9-0.6,7.1-1.2c1.6-0.2,3.3-0.6,5-1.2l-0.5-1.9c-1.2,0.2-2.6,0.5-4,0.9l-0.9,0.2
		c-0.8,0.1-1.6,0.2-2.4,0.2c-3,0-5.8-0.7-8.5-2.3V231.8 M1191.4,444l0,63.3c-3,2.5-6.3,4.7-10.3,4.7v2c1.3,0,2.7,0.1,4,0.2
		c1.3,0.1,2.5,0.2,3.7,0.2c1,0,1.9-0.1,2.6-0.2l0,2.9l0,17c-0.8,1.1-1.6,2.1-2.5,3c-3.5,0-7-0.2-10.4-0.3c-3.7-0.1-7.5-0.3-11.2-0.3
		c-1.8,0-3.5,0-5.2,0.1v-92.1l1.9,1.3l4,2.7l0.1,0.1l0.1,0c2.8,1.1,5.7,1.7,8.5,1.7c1.7,0,3.4-0.2,5.1-0.6
		C1186.7,448.2,1190.8,445.1,1191.4,444 M1161,230.3v165.3c3.2,1.9,6.4,2.7,9.5,2.7c0.9,0,1.7-0.1,2.6-0.2c1.8-0.4,3.5-0.9,4.9-1.1
		c-1.6,0.5-3.3,0.9-4.9,1.1c-2.3,0.6-4.8,1.1-7,1.1c-2.2,0-4-0.6-5.2-2.2v140.5c2-0.1,4.1-0.2,6.2-0.2c7.3,0,14.7,0.6,22.1,0.6
		c1.2-1.1,2.2-2.3,3.1-3.7c0-7.2,0-14.4,0-21.6c-0.1,0.1-0.2,0.2-0.3,0.3c-1,0.3-2.1,0.4-3.3,0.4c-2.4,0-5-0.4-7.7-0.4
		c4.3,0,7.9-2.3,11.3-5.2c0-70.4,0.1-140.8,0.1-211.2c-4,1.5-8.6,2.5-13,2.5c-5.5,0-10.8-1.5-14.5-5.1c4.2,0.4,9.6,1.4,14.6,1.4
		c5.4,0,10.3-1.1,12.8-5.1c0-18.9,0-37.7,0-56.6c-0.6,0.6-1.6,1.4-3,2.1c0,0-0.1,0-0.1,0.1c-1.2,0.6-2.3,0.9-2.9,1
		c-2.1,0.5-4.7,0.6-5,0.6c-1.3-0.2-3.2-0.4-5.5-1c-0.8-0.2-1.6-0.4-2.5-0.7c-0.8-0.3-2.8-1.3-7-3.2c-2.2-1-4-1.7-5.2-2.2
		c0,0-0.1,0-0.1-0.1C1161.1,230.4,1161,230.4,1161,230.3L1161,230.3z M1176.3,446.6c1.9,0,4.8-0.2,8.2-1.1c3.6-0.9,5.5-2,5.9-2
		c0,0,0.1,0,0.1,0c0.2,0.3-3.8,3.7-9,5c-1.7,0.4-3.3,0.6-4.8,0.6c-3.6,0-6.6-1-8.2-1.6c-2-1.3-4-2.7-6-4c0.6,0.3,1.2,0.7,2,1
		c1.5,0.6,2.9,0.9,4,1c1.5,0.4,3.5,0.8,6,1C1174.9,446.5,1175.5,446.6,1176.3,446.6L1176.3,446.6z"/>
</g>
<path class="st0" d="M941.5,353.5"/>
<g>
	<path d="M935.9,607.6c0.2,0,0.4,0.1,0.6,0.1C936.3,607.7,936.1,607.7,935.9,607.6z"/>
	<path d="M935.9,607.6c0.2,0,0.4,0.1,0.6,0.1C936.3,607.7,936.1,607.7,935.9,607.6L935.9,607.6z"/>
</g>
<g>
	<path d="M1181,185c2.4,0.5,4.7,0.5,6.7-0.2C1185.6,185.3,1183.2,185,1181,185z"/>
	<path d="M1187.7,184.8c-1,0.3-2.1,0.3-3.2,0.3c-1.2,0-2.4-0.1-3.5-0.1c1.1,0.2,2.1,0.3,3.2,0.3
		C1185.4,185.3,1186.6,185.2,1187.7,184.8L1187.7,184.8z"/>
</g>
<path class="st0" d="M1191.5,210.5c0-1.7,0-3.3,0-5c0-4.7,0-9.3,0-14c0-2.7,0-5.3,0-8c0-0.7,0-1.3,0-2c-0.2,0.5-0.5,1.4-1.3,2.1
	c-1.8,1.6-4.3,1-4.7,0.9c-1.6-0.4-2.6-1.5-3-2c1.4,0.3,3.5,0.5,6,0c1.2-0.3,2.2-0.6,3-1c0-0.7,0-1.3,0-2c0.2-49.5,0.3-99,0.5-148.5
	c-1,0.8-2.5,1.8-4.5,2.5c-1.6,0.6-5.7,2.1-10.5,0.5c-4.3-1.4-6.7-4.4-7.5-5.5c1.3,0.8,3.2,1.8,5.5,2.5c2.4,0.7,4.4,1,6,1
	c1.4-0.4,3.1-1,5-2c2.9-1.6,4.8-3.6,6-5V0h-31c0.2,37.6,0.4,75.2,0.5,112.8c1.7-4.1,6.2-7.3,8.5-8.8c4.6-1.5,7.4,6.3,12.6,9.6
	c0.6,0.5,2,1.5,3.9,1.9c1.2,0.2,2.3,0.1,3,0c-0.9,0.8-1.5,1-2,1c-0.2,0-1,0-1,0s-2,0-2,0c-0.6-0.3-1.3-0.6-2-1c-1.2-0.7-2.2-1.3-3-2
	c-0.7-0.9-1.7-2-3-3c-1.8-1.5-3.6-2.4-5-3c1.3,1.4,3.6,4.2,4.5,8.4c1.7,7.9-2.8,14.1-3.5,15.2c-1,1-5,0-5-1
	c-0.6-2.8-1.2-6.9-0.6-11.9c0.5-4.1,1.6-7.4,2.6-9.7c0,0-2.1,1.8-3.5,2.9c-1.1,0.8-2.6,1.9-4.5,3.1v104c1.1,0.4,2.9,1.1,5,2
	c4.3,1.7,4.2,1.8,5,2c4.2,1.1,7.9,0.3,9,0c2.1-0.5,3.5-1.3,5-2c2.7-1.4,4.7-2.9,6-4C1191.5,214.5,1191.5,212.5,1191.5,210.5z
	 M1191.5,181.5 M1191.5,181.5"/>
<g>
	<path d="M1180.5,235.5c-6,0-12.5-2.8-17.7-5l-1.2-0.5c0,0-0.1-0.2-0.1-0.2l0.4-9.4c2.7,2,7.5,4.8,13.7,4.8h0c0.8,0,1.6,0,2.4-0.1
		c6.3-0.8,10.9-4.2,13.5-6.7v12.6C1188.6,234,1185,235.5,1180.5,235.5L1180.5,235.5z"/>
	<path d="M1191,219.4v11.3c-2.8,2.9-6.2,4.3-10.5,4.3c-5.9,0-12.3-2.8-17.5-5c-0.4-0.2-0.7-0.3-1-0.4c0.1-1.6,0.2-3.2,0.2-4.9
		c0.1-1.2,0.1-2.3,0.2-3.5c2.8,2,7.4,4.4,13.2,4.4c0.8,0,1.7-0.1,2.5-0.1C1183.9,224.8,1188.3,221.8,1191,219.4 M1192,217
		c-1.7,1.8-6.6,6.6-14,7.5c-0.8,0.1-1.6,0.1-2.4,0.1c-7.3,0-12.5-4-14.1-5.3c-0.2,3.5-0.3,7-0.5,10.5c0.1,0.2,0.2,0.3,0.3,0.5
		c5.5,2.4,12.6,5.6,19.3,5.6c4.2,0,8.2-1.3,11.5-4.9V217L1192,217z"/>
</g>
<g>
	<path d="M1208,226.3c0.1,0,0.2,0.1,0.3,0.1c-0.1-0.1-0.2-0.3-0.3-0.4V226.3z"/>
	<path d="M1208,226v0.3c0.1,0,0.2,0.1,0.3,0.1C1208.2,226.3,1208.1,226.2,1208,226L1208,226z"/>
</g>
<path class="st0" d="M1235.5,227.5"/>
<path class="st0" d="M1242.5,237.5"/>
<path class="st0" d="M1210.5,223.5"/>
<path class="st0" d="M1204.5,984.5"/>
<g>
	<path d="M1094.6-1h-1.1C1093.8-1,1094.2-1,1094.6-1z"/>
	<path d="M1094.6-1h-1.1c0.2,0,0.4,0,0.5,0C1094.2-1,1094.4-1,1094.6-1L1094.6-1z"/>
</g>
<g>
	<path d="M1072.5,43.9c0.2,0,0.4,0,0.6,0c2.3,0,4.4-1.8,6.2-3.6l1.3-1.3l-1.8,0.4c-0.7,0.2-1.3,0.3-2,0.3c-1.4,0-2.8-0.4-4.4-1.2
		V-0.5h10.2c1.2,18.4,2.8,54.1,0.3,90c0,0.2-1.4,20.6-5,47c-1.1,8.3-1.7,12.9-3,19l-0.2,0.8c-0.4,1.9-1,5-1.8,9.2
		c-0.2,0.9-0.3,1.8-0.5,2.8V43.9z"/>
	<path d="M1082.2,0c1.2,18.5,2.7,53.9,0.3,89.4c0,0.2-1.4,20.6-5,46.9c-1.1,8.3-1.7,12.9-3,18.9l-0.2,0.8c-0.3,1.5-0.8,3.7-1.3,6.7
		V44.5c0,0,0.1,0,0.1,0c2.5,0,4.7-1.9,6.6-3.8l2.6-2.6l-3.5,0.9c-0.6,0.2-1.3,0.2-1.9,0.2c-1.2,0-2.5-0.3-3.9-1V0H1082.2 M1083.2-1
		H1072v39.9c1.5,0.8,3.1,1.4,4.9,1.4c0.7,0,1.4-0.1,2.1-0.3c-2,2-3.9,3.5-5.9,3.5c-0.4,0-0.8-0.1-1.1-0.2V174c0.3-2,0.8-4.9,1.5-8.5
		c0.9-4.9,1.7-8.4,2-10c1.3-6.1,1.9-10.8,3-19c3.6-26.7,5-47,5-47C1086.2,50.1,1084,11.5,1083.2-1L1083.2-1z"/>
</g>
<g>
	<path d="M1116.3,239.4c2.1-0.9,4.2-1.2,6.4-1.5c1-0.1,2-0.3,3-0.5C1122.9,238.5,1119.6,239.2,1116.3,239.4z"/>
	<path d="M1127.7,236.4c-4.6,1.4-9.2,0.8-13.7,3.6c4.9,0,9.8-1,13.7-2.9C1127.7,236.9,1127.7,236.7,1127.7,236.4L1127.7,236.4z"/>
</g>
<g>
	<path d="M1123,26.8c-0.7,0-1.4-0.2-1.9-0.5c0.8,0.3,1.6,0.3,2.3,0.3c0.3,0,0.6,0,1,0C1124,26.8,1123.5,26.8,1123,26.8L1123,26.8z"
		/>
	<path d="M1119,24c0.6,2.3,2.2,3.3,4,3.3c1.3,0,2.7-0.5,4-1.3c-1.2,0-2.4,0.2-3.5,0.2C1121.8,26.2,1120.2,25.8,1119,24L1119,24z"/>
</g>
<g>
	<path d="M1072,906v0.2c0,0,0,0,0.1,0C1072,906.2,1072,906.1,1072,906z"/>
	<path d="M1072,906v0.2c0,0,0,0,0.1,0C1072,906.2,1072,906.1,1072,906L1072,906z"/>
</g>
<g>
	<path d="M1096,985.8c-1.3-0.3-2.7-0.6-4-0.8C1093.3,985.3,1094.6,985.6,1096,985.8z"/>
	<path d="M1092,985c1.3,0.3,2.6,0.6,4,0.8C1094.6,985.5,1093.3,985.2,1092,985L1092,985z"/>
</g>
<g>
	<path d="M1072.5,1024.5V908.9c2.6,4.8,8.7,6.6,14.1,6.6c4.3,0,8.6-1.1,11.6-3l1.8-1.1l-2.1,0.2c-1.7,0.2-3.4,0.3-5.1,0.3
		c-2.9,0-5.6-0.3-8.2-0.8c-1.4-0.3-2.8-0.6-3.9-1c-2.9-0.9-5.6-2.3-8.1-4.1l0-0.1l0-11.9c5.8,4.4,12.7,6.8,19.6,6.8
		c5.4,0,10.6-1.5,15.1-4.4l1.7-1.1l-2,0.2c-1.9,0.1-3.8,0.2-5.7,0.2c-8,0-22.4-1.4-28.7-11.1V496.8l1.1,1.5c2.8,4,8.1,5.9,16.2,5.9
		c3.6,0,7.2-0.4,10.3-0.7l4.5-0.5l-4.5-0.5c-2.5-0.3-5.1-0.3-7.5-0.4c-6.8-0.1-13.2-0.3-18.2-4.5l-1.8-1.6v-76.9l0.1,0.1
		c1.9,3.9,5.9,5.9,11.6,5.9c5.2,0,10.4-1.7,13-2.7l4-1.5l-4.2,0.5c-1.2,0.2-2.5,0.4-3.8,0.6c-2.9,0.5-6,0.9-8.9,0.9
		c-4.9,0-8.3-1.4-10.9-4.3l-0.9-1v-33c2.4,0.8,4.8,2.5,7,4.1c3.1,2.2,6,4.3,8.9,4.3c1,0,1.9-0.2,2.8-0.7c6.2-3.1,11.3-9.3,13.3-16.3
		l0.5-1.7l-1.3,1.2c-3.8,3.6-7.7,7.1-11.5,10.5c-0.7,0.6-1.9,1.7-3.7,1.9c-0.2,0-0.3,0-0.5,0c-1,0-2.1-0.3-3.2-0.9
		c-1.7-1.6-5.1-4.1-9.5-4.1c-0.3,0-0.6,0-0.9,0c-0.7,0.1-1.3,0.2-2,0.3v-18.1c1.3-0.9,2.6-1.8,3.9-2.7c0.4-0.3,0.7-0.6,1.1-0.9
		c0.6-0.5,1.3-1.1,2.2-1.7c0.3-0.2,0.4-0.2,0.7-0.4c0.2-0.1,0.6-0.3,1.3-0.6c0.7-0.3,1.2-0.6,1.7-0.9c1.3-0.7,1.9-1,2.4-1.1
		c-10.5,5.6-6,19-3.3,27.1c0.9,1.8,3.5,2.7,5.5,2.7c0.8,0,1.6-0.2,2.2-0.4l0.1,0l0,0c3.8-3.4,5.8-8.1,5.6-13.2
		c-0.2-4.9-2.2-9.9-5.6-13.7c3.1,2.1,6.5,3.6,10.1,4.5c2.3,0.6,4.7,0.9,7.1,1l2.1,0.1l-1.9-1c-3.4-1.8-6.7-3.8-10-6
		c-2.3-1.5-3.9-2.7-5-3.6c-1.7-1.3-2.7-2-3.8-2.3c-0.3-0.1-0.8-0.2-1.4-0.2c-0.3,0-0.5,0-0.8,0c-7.1,0-13.4,7.9-13.7,8.2l0,0.1
		l-0.6,1.3V261.2c2.9,1.3,5.9,2.2,8.9,2.8c2.5,0.5,5.1,0.7,7.7,0.7c11,0,19.9-3.9,20.2-4.4l0.2-0.2l-0.2-0.6l-0.4,0
		c-0.1,0-0.2,0-0.6,0.1c-1,0.2-3.2,0.8-6.9,1.4c-1.8,0.3-6.1,0.9-10.9,1c-0.3,0-0.6,0-0.9,0c-5.6,0-11.3-0.8-17.1-2.3v-16.4
		c0.1-0.1,0.4-0.3,0.4-0.3l0.6-0.1l-0.1-0.3c3.4-3.3,6.6-7,9.5-10.8c5.6-7.5,8.9-14.4,12.1-21.1c2.6-5.5,4.3-9.1,6-14.1
		c2.8-8,3.9-18,6-36.1c0.7-5.7,1.3-12.1,2-19c0.5-5.3,0.8-8,1-11c0.7-8.8,0.9-21.2,1-30c0.1-7.2,0.1-11.9,0-18
		c-0.2-13.6-1.3-29.3-3-44c-1.5-13-3.5-26.1-6.1-38.9L1127,0v17.3c-0.1-0.1-0.1-0.1-0.1-0.2c-0.8-0.8-1.8-1.1-2.3-1.1
		c-1.6,0.1-3,0.4-4.3,1c-2.5,1.2-4.1,3.4-4.3,4.2c-0.1,0.3,0,0.5,0.1,0.6l0.1,0.2l0.3,0c0.3,0,0.5-0.1,1-0.5c0.7-0.4,1.6-1,3.1-1.6
		c0.3-0.1,0.6-0.3,1-0.4c-0.9,0.5-1.6,1.1-1.7,1.8c-0.1,1.1,0.9,2.2,3.3,3.5c0,0,0.1,0,0.1,0.1c-1.4,0-2.9-0.2-4-1.4l-1.6-1.7
		l0.8,2.2c0.6,1.7,2.2,2.6,4.5,2.6c1.3,0,2.7-0.3,4-0.9l0,19.6c-2.7,0.9-5,1.3-7.2,1.3c-1.2,0-2.4-0.1-3.7-0.4l-0.2,1
		c2.7,0.7,6.1,1.4,9.4,1.4c0.6,0,1.2,0,1.8-0.1l0.2,187.2c-1.6,0.5-3.2,0.7-4.7,0.9c-2.9,0.4-5.8,0.8-8.8,2.6l-1,0.6l1.2,0.3
		c1,0.3,2.3,0.4,3.6,0.4c3.3,0,7.3-0.8,9.8-2.7l0.3,219.7c-3.4,6-9.4,8.9-18.2,8.9c-1.6,0-3.4-0.1-5.2-0.3l-4-0.4l3.8,1.4
		c3.4,1.3,7.3,2,10.9,2c4,0,10.3-0.9,12.8-6.4l-0.5,196.3c-0.9,1.5-2.1,2.8-3.6,3.9c-1.3,1-2.7,1.7-4.2,2.1
		c-5.7,1.8-11.5,2.7-17.4,2.7c-0.4,0-0.8,0-1.2,0c-4.7-0.1-9.3-0.8-13.9-2l-3.9-1.1l3.6,2c2.7,1.5,5.6,2.6,8.6,3.3
		c2.3,0.5,4.6,0.8,6.9,0.8c7.5,0,13.7-2.5,17.7-4.7c1.2-0.1,2.9-0.5,4.6-1.6c1.4-0.9,2.3-2,2.9-3l0.4,173.6l-1-1.6
		c-2.3-3.5-4.8-5.2-7.9-5.2c-3.5,0-7.2,2.3-11,4.8c-4.1,2.6-8.3,5.3-12.6,5.3c-0.3,0-0.6,0-0.8,0l-3.6-0.3l3.4,1.3
		c1.2,0.5,2.4,0.7,3.7,0.9c0.2,0,0.6,0.1,1.1,0.1c1.4,0,3.8-0.2,6.9-1.4c0.1,0,2.5-1,9.2-5l0.5-0.2c-0.1,0.5-0.1,1.1-0.2,1.7
		c-1,8.6-2,16,1.8,18.5c0.8,0.5,1.7,0.8,2.7,0.8c0.5,0,1.1-0.1,1.6-0.2c3.9-1,5.1-6,6.1-10.1c0.1-0.4,0.2-0.8,0.3-1.2l0,9.7
		c-0.9,1-3.6,3.7-7.9,4c-0.2,0-0.4,0-0.6,0c-5.4,0-8.7-4.1-9.1-4.6c-2-3.4-5.5-5.5-9.2-5.5c-0.1,0-0.3,0-0.4,0
		c-3.3,0.1-5.6,1.9-6.7,2.9l-0.9,0.9h1.3c0.8,0,1.6-0.1,2.4-0.1c0.8-0.1,1.6-0.1,2.3-0.1c1.6,0,2.5,0.3,2.8,1l0,0.1l0.1,0.1
		c0.7,0.6,1.5,1.3,2.3,2c4.6,4.1,9.8,8.7,15.7,8.7c2.5,0,5.1-0.9,7.5-2.6c0.1,0,0.2-0.1,0.3-0.1v118.1c-7.2,5.5-15.8,8.4-24.7,8.4
		c-2.2,0-4.5-0.2-6.7-0.5c-1.5-0.3-2.8-0.6-4-0.8l-0.2,1c1.2,0.3,2.5,0.5,4,0.8c1.9,0.4,3.9,1,5.8,1.5c5,1.4,10.2,2.8,15.2,2.8
		c4.1,0,7.6-1,10.6-3v36.9H1072.5z M1124.6,454.7c-3.3,4.7-8.1,5.2-13.1,5.7c-2.2,0.2-4.5,0.5-6.7,1.1l-3.4,1h3.6c1,0,2.1,0,3.3,0.1
		c1.3,0,2.6,0.1,3.9,0.1c5.4,0,11.8-0.9,13.3-7.6l0.5-2.4L1124.6,454.7z M1127.5,839.9c-0.1-0.5-0.3-1.1-0.5-1.7
		c-1.1-2.8-3.4-4.5-5.3-5.4c1.4,0.2,2.8,0.8,4.1,1.6l1.7,1.1L1127.5,839.9z M1127,24.8l0,0.1c-0.1,0-0.1,0-0.2,0
		C1126.9,24.9,1126.9,24.8,1127,24.8z"/>
	<path d="M1102.5,0l24,0.5v10v3v2.7c-0.7-0.5-1.4-0.6-1.9-0.7l-0.1,0l-0.1,0c-1.6,0.1-3.1,0.4-4.4,1.1c-2.5,1.3-4.3,3.5-4.5,4.6
		c-0.1,0.5,0.1,0.8,0.2,1c0.2,0.2,0.5,0.4,0.8,0.4c0.3,0,0.5-0.1,0.8-0.2l0.7,2c0.7,1.9,2.5,3,5,3c1.1,0,2.3-0.2,3.5-0.6l0,18.5
		c-2.5,0.8-4.6,1.2-6.7,1.2c-1.2,0-2.4-0.1-3.6-0.4l-0.4,2c2.7,0.7,6.2,1.4,9.5,1.4c0.4,0,0.9,0,1.3,0l0.2,186.3
		c-1.4,0.4-2.8,0.6-4.3,0.8c-2.9,0.4-5.9,0.8-8.9,2.7l-2.1,1.2l2.3,0.6c1.1,0.3,2.4,0.4,3.7,0.4c3,0,6.7-0.7,9.3-2.2l0.1,108.4
		l0.1,102.9l-2.8,3.9c-3.2,4.5-7.8,5-12.7,5.5c-2.2,0.2-4.5,0.5-6.8,1.1l-6.9,2h7.1c1,0,2.1,0,3.3,0.1c1.3,0,2.6,0.1,3.9,0.1
		c5.6,0,12.2-0.9,13.8-8l1-4.6l0,7.1c-3.3,5.8-9.1,8.6-17.7,8.6c-1.6,0-3.4-0.1-5.2-0.3l-8-0.9l7.5,2.8c3.4,1.3,7.5,2,11.1,2
		c5.7,0,9.9-1.8,12.3-5.1l-0.5,194.3c-0.9,1.4-2,2.6-3.4,3.6c-1.2,0.9-2.6,1.6-4.1,2.1c-5.6,1.8-11.4,2.6-17.3,2.6
		c-0.4,0-0.8,0-1.2,0c-4.6-0.1-9.3-0.8-13.8-2l-7.9-2.1l7.1,3.9c2.8,1.5,5.7,2.7,8.8,3.3c2.3,0.5,4.7,0.8,7,0.8
		c7.5,0,13.8-2.5,17.8-4.7c1.2-0.1,3-0.5,4.7-1.7c0.9-0.6,1.6-1.2,2.1-1.9l0.4,170.4l-0.1-0.2c-2.4-3.7-5.1-5.5-8.3-5.5
		c-3.7,0-7.4,2.3-11.3,4.8c-4,2.6-8.2,5.2-12.4,5.2c-0.3,0-0.5,0-0.8,0l-7.2-0.6l6.7,2.5c1.2,0.5,2.5,0.8,3.8,0.9
		c0.3,0,0.7,0.1,1.2,0.1c1.5,0,3.9-0.3,7.1-1.5c0.1,0,2.5-0.9,8.9-4.8c0,0.3-0.1,0.5-0.1,0.8c-1.1,8.8-2,16.3,2,19
		c0.9,0.6,1.9,0.8,3,0.8c0.6,0,1.2-0.1,1.7-0.2c3.3-0.8,4.8-4.3,5.7-7.8l0,5.4c-1,1.1-3.5,3.4-7.5,3.6c-0.2,0-0.4,0-0.5,0
		c-5.1,0-8.2-3.7-8.7-4.3c-2.1-3.5-5.8-5.7-9.6-5.7c-0.1,0-0.3,0-0.4,0c-3.4,0.1-5.9,2-7,3l-1.8,1.7h2.5c0.8,0,1.6-0.1,2.5-0.1
		c0.8-0.1,1.6-0.1,2.3-0.1c1.4,0,2.1,0.2,2.4,0.7l0.1,0.2l0.2,0.1c0.7,0.6,1.5,1.3,2.3,2c4.6,4.1,9.9,8.8,16,8.8
		c2.5,0,5-0.8,7.4-2.3v117c-7.1,5.3-15.4,8.1-24.2,8.1c-2.2,0-4.4-0.2-6.6-0.5c-1.5-0.3-2.8-0.6-4-0.8l-0.4,2c1.2,0.3,2.5,0.6,4,0.8
		c1.9,0.4,3.9,1,5.8,1.5c5.1,1.4,10.3,2.8,15.3,2.8c3.8,0,7.2-0.8,10.1-2.6v35.5h-54V910.6c3,3.9,8.6,5.4,13.6,5.4
		c4.4,0,8.8-1.1,11.9-3.1l3.6-2.3l-4.3,0.4c-1.7,0.2-3.4,0.3-5.1,0.3c-2.8,0-5.6-0.2-8.2-0.7c-1.4-0.3-2.7-0.6-3.9-1
		c-2.8-0.9-5.4-2.2-7.8-3.9V895c5.7,4.1,12.4,6.3,19.1,6.3c5.5,0,10.8-1.5,15.4-4.4l3.4-2.1l-4,0.3c-1.9,0.1-3.8,0.2-5.7,0.2
		c-18.2,0-25.5-6.6-28.2-10.8V498.3l0.2,0.3c2.9,4.1,8.4,6.1,16.6,6.1c3.6,0,7.2-0.4,10.3-0.7l8.9-1l-8.9-1
		c-2.5-0.3-5.1-0.3-7.6-0.4c-6.7-0.1-13-0.3-17.9-4.4l-1.7-1.4v-74.9c2.2,3.1,6,4.7,11.1,4.7c5.2,0,10.5-1.7,13.2-2.7l8-3l-8.4,1.1
		c-1.2,0.2-2.5,0.4-3.8,0.6c-2.9,0.5-5.9,0.9-8.8,0.9c-4.7,0-8.1-1.3-10.5-4.2l-0.8-0.9v-32.1c2.1,0.9,4.2,2.4,6.2,3.8
		c3.1,2.2,6.1,4.4,9.2,4.4c1,0,2-0.2,3-0.7c6.4-3.2,11.5-9.4,13.5-16.6l1-3.5l-2.6,2.5c-3.8,3.6-7.6,7.1-11.5,10.5
		c-0.2,0.2-0.5,0.4-0.8,0.7c3.7-3.4,5.6-8.2,5.4-13.3c-0.1-4.1-1.6-8.3-4-11.8c2.5,1.4,5.1,2.4,7.8,3.2c2.3,0.6,4.8,1,7.2,1l4.3,0.1
		l-3.8-2c-3.4-1.8-6.7-3.8-9.9-6c-2.3-1.5-3.8-2.7-5-3.5c-1.8-1.3-2.8-2-4-2.4c-0.4-0.1-0.8-0.2-1.5-0.2c-0.3,0-0.5,0-0.8,0
		c-6.6,0-12.4,6.5-13.8,8.1V262c2.7,1.1,5.5,2,8.3,2.5c2.5,0.5,5.1,0.7,7.8,0.7c10.7,0,20.1-3.9,20.6-4.6l0.3-0.4l-0.1-0.5l-0.2-0.8
		h-0.8c-0.2,0-0.3,0-0.7,0.1c-1,0.2-3.2,0.8-6.9,1.4c-1.8,0.3-6.1,0.9-10.9,1c-0.3,0-0.6,0-0.9,0c-5.4,0-11-0.8-16.6-2.2v-15.7
		c0,0,0.1-0.1,0.1-0.1l0.3-0.2l-0.2-0.3l0.1,0l0.2,0.2c0.1-0.1,0.3-0.2,0.4-0.4l0,0c0,0,0,0,0,0c3.4-3.3,6.5-6.9,9.3-10.7
		c5.6-7.5,8.9-14.5,12.1-21.2c2.6-5.5,4.3-9.1,6-14.1c2.8-8.1,3.9-18.1,6-36.2c0.7-5.7,1.3-12.1,2-19c0.5-5.3,0.8-8,1-11
		c0.7-8.8,0.9-21.2,1-30.1c0.1-7.2,0.1-11.9,0-18c-0.2-13.6-1.3-29.3-3-44.1C1107,25.6,1105,12.7,1102.5,0 M1119.6,21
		c0,0.1-0.1,0.2-0.1,0.4c-0.1,1.1,0.7,2.1,1.7,2.8c-0.6-0.2-1.1-0.5-1.5-0.9l-1.5-1.6C1118.6,21.5,1119,21.3,1119.6,21
		 M1081.9,359.4c-6,6.7-2.3,17.8,0.1,24.9l0,0.1l0,0.1c0,0,0,0,0,0c-1.8-1.1-4.1-2-6.8-2c-0.3,0-0.6,0-0.9,0c-0.5,0-1,0.1-1.4,0.2
		v-17.2c1.3-0.8,2.5-1.7,3.7-2.6c0.4-0.3,0.8-0.6,1.1-0.9c0.6-0.5,1.2-1.1,2.1-1.6c0.2-0.1,0.3-0.2,0.7-0.3
		C1080.9,359.9,1081.3,359.7,1081.9,359.4 M1086,387.1c0.7,0.2,1.4,0.3,2.1,0.3c0.6,0,1.2-0.1,1.7-0.2c-0.4,0.2-0.8,0.3-1.3,0.3
		c-0.2,0-0.3,0-0.4,0C1087.3,387.5,1086.6,387.4,1086,387.1 M1125.1,834.6c0.1,0.1,0.3,0.2,0.4,0.2l1.5,1l0,1.3
		C1126.4,836.1,1125.8,835.3,1125.1,834.6 M1101.3-1c3,14.9,4.9,28.2,6.2,39.5c2.5,21.9,2.9,38.7,3,44c0.1,6.1,0.1,10.9,0,18
		c-0.2,18.8-0.8,27.3-1,30c-0.2,3-0.5,5.7-1,11c-0.3,2.9-1,10.7-2,19c-2.2,18.7-3.3,28.2-6,36c-1.7,4.9-3.4,8.5-6,14
		c-3.4,7.2-6.5,13.7-12,21c-3.6,4.8-7,8.4-9.6,10.9c0,0.2,0.1,0.4,0.1,0.6c0-0.2-0.1-0.4-0.1-0.6c-0.3,0.2-0.6,0.4-0.9,0.6v17
		c7.4,2,13.5,2.5,17.6,2.5c0.3,0,0.6,0,0.9,0c4.8-0.1,9-0.7,11-1c4.9-0.7,7.3-1.5,7.5-1.5c0,0,0,0,0,0c0,0.1-8.7,4.2-19.8,4.2
		c-2.5,0-5-0.2-7.7-0.7c-4-0.8-7.3-2-9.5-3.1V361v3c1.4-3.3,1.5-3.5,1.5-3.5c0,0,6.3-8,13.3-8c0.2,0,0.5,0,0.7,0
		c0.6,0,1,0.1,1.3,0.2c1.8,0.5,3.2,2.1,8.7,5.8c4.1,2.7,7.6,4.7,10,6c-2-0.1-4.4-0.3-7-1c-5.5-1.4-9.6-4.1-12-6
		c-0.8-0.7-1.5-0.9-2-1c-0.1,0-0.2,0-0.3,0c-0.9,0-1.7,0.5-4.7,2c-1.5,0.8-1.5,0.7-2,1c-1.6,0.9-2.3,1.8-3.4,2.6
		c-1.4,1-2.8,2-4.1,2.9v19c0.8-0.2,1.6-0.4,2.5-0.5c0.3,0,0.6,0,0.8,0c4.6,0,8.1,3,9.2,4c0.7,0.4,2,1,3.5,1c0.2,0,0.4,0,0.5,0
		c1.9-0.2,3.2-1.3,4-2c4.8-4.3,8.8-8,11.5-10.5c-2,7-7,13-13,16c-0.8,0.4-1.7,0.6-2.5,0.6c-5.2,0-10.4-6.9-16.5-8.6v500.7
		c5.7,8.9,18.1,11.5,29.2,11.5c2,0,3.9-0.1,5.8-0.2c-4.6,2.9-9.7,4.3-14.9,4.3c-7.2,0-14.3-2.6-20.1-7.3v13c0,0.1,0,0.2,0.1,0.3
		c1.8,1.3,4.7,3,8.4,4.2c0.6,0.2,1.9,0.6,4,1c2,0.4,4.8,0.8,8.3,0.8c1.6,0,3.3-0.1,5.2-0.3c-3,1.9-7.2,2.9-11.4,2.9
		c-6.7,0-13.2-2.7-14.5-8.7c0,0,0,0-0.1,0V1025h56v-38.3c-3.5,2.5-7.2,3.4-11.1,3.4c-6.8,0-14.1-2.7-20.9-4.3
		c-1.3-0.2-2.6-0.5-4-0.8c1.3,0.2,2.6,0.5,4,0.8c2.3,0.4,4.6,0.5,6.8,0.5c9.1,0,17.9-2.9,25.2-8.6V853c-1,2,0,6-1,6
		c-2.6,1.8-5,2.5-7.4,2.5c-6.7,0-12.4-6.1-17.6-10.5c-0.5-1-1.8-1.2-3.2-1.2s-3.2,0.2-4.8,0.2c0.7-0.6,3-2.6,6.4-2.8
		c0.1,0,0.2,0,0.4,0c3.5,0,6.8,2,8.8,5.3c0.3,0.4,3.8,4.8,9.5,4.8c0.2,0,0.4,0,0.6,0c5-0.3,7.9-3.7,8.4-4.3
		c-0.2-64.5-0.3-129-0.5-193.5c-0.3,0.8-1.2,3.2-3.7,4.8c-1.8,1.2-3.6,1.5-4.5,1.5c-2.7,1.5-9.3,4.7-17.5,4.7
		c-2.2,0-4.5-0.2-6.8-0.7c-3.4-0.8-6.2-2-8.5-3.2c3.7,1,8.4,1.9,14,2c0.4,0,0.8,0,1.2,0c7.3,0,13.4-1.4,17.6-2.7
		c1.1-0.3,2.7-1,4.4-2.2c2-1.4,3.1-3.1,3.8-4.1c0.2-66.8,0.3-133.7,0.5-200.5c-0.6,7.5-6.8,10-13.3,10c-3.8,0-7.8-0.8-10.7-2
		c1.7,0.2,3.5,0.3,5.3,0.3c7.4,0,14.7-2.1,18.7-9.3c-0.1-73.6-0.2-147.3-0.3-220.9c-2.1,2.2-6.5,3.3-10.3,3.3
		c-1.3,0-2.5-0.1-3.5-0.4c4.6-2.7,9.2-2.1,13.7-3.6c-0.1-62.7-0.1-125.4-0.2-188.2c-0.7,0.1-1.5,0.1-2.3,0.1c-3.1,0-6.4-0.7-9.3-1.4
		c1.3,0.3,2.6,0.4,3.8,0.4c2.6,0,5.1-0.6,7.7-1.5c0-7.8,0-15.6,0-23.4c0,0.1,0,0.1,0,0.2c0,0.3,0,0.5,0,0.8c-0.2,0.3-0.5,0.7-1,1
		c-0.5,0.3-1,0.4-1.4,0.4c-0.8,0-1.5-0.3-1.6-0.4c-2.5-1.4-3.1-2.3-3-3c0.2-1.8,5.1-2.6,5-3c0-0.1-0.2-0.1-0.5-0.1
		c-0.4,0-0.9,0-1.5,0.1c-0.8,0.2-1.8,0.5-3,1c-2.4,1-3.6,2-3.9,2c0,0,0,0-0.1,0c-0.2-0.3,1.4-2.7,4-4c1.5-0.8,3-1,4-1
		c0.3,0,1.2,0.2,2,1c0.2,0.2,0.8,0.9,1,2c0-1,0-2,0-3s0-2,0-3s0-2,0-3c0-3.7,0-7.3,0-11C1118.8-0.7,1110.1-0.8,1101.3-1L1101.3-1z
		 M1123,26.3c-1.8,0-3.5-0.7-4-2.3c1.2,1.3,2.8,1.5,4.5,1.5c1.1,0,2.3-0.1,3.5-0.1C1125.8,26,1124.3,26.3,1123,26.3L1123,26.3z
		 M1088.1,386.4c-2,0-4.3-0.9-5.1-2.4c-3-9-7-22,4-27c9,7,12,21,3,29C1089.5,386.3,1088.8,386.4,1088.1,386.4L1088.1,386.4z
		 M1084.1,424.6c-4.8,0-9-1.4-11.1-5.6c3,3.5,7,4.5,11.2,4.5s8.8-1,12.8-1.5C1093.2,423.4,1088.5,424.6,1084.1,424.6L1084.1,424.6z
		 M1112.2,462.2c-2.5,0-5.1-0.2-7.2-0.2c7-2,15,0,20-7C1123.6,461.2,1117.9,462.2,1112.2,462.2L1112.2,462.2z M1089.8,503.7
		c-6.4,0-12.5-1.2-15.8-5.7c7,6,17,4,26,5C1096.8,503.4,1093.3,503.7,1089.8,503.7L1089.8,503.7z M1094.9,839c8.5,0,16.6-10,23.7-10
		c2.6,0,5.1,1.3,7.4,5c-0.9-0.6-2.6-1.5-5-1.8c-0.3,0-0.7,0-1,0c-1,0-1.9,0.1-2.5,0.3c0.4-0.1,0.7-0.1,1-0.1c0.4,0,0.7,0,1,0.1
		c0.9,0.3,5.3,1.8,7,5.9c0.7,1.7,0.9,3.1,0.5,4.6c-1,4-2,10-6,11c-0.2,0-0.7,0.2-1.5,0.2c-0.7,0-1.6-0.1-2.4-0.7
		c-3.5-2.3-2.6-9.8-1.6-18c0.1-1,0.2-1.8,0.3-2.5c-0.9,0.3-1.3,0.5-1.3,0.5c-6.7,4.1-9.1,5-9.1,5c-3.1,1.2-5.4,1.4-6.7,1.4
		c-0.5,0-0.9,0-1.1-0.1c-1.2-0.1-2.3-0.4-3.5-0.8C1094.3,839,1094.6,839,1094.9,839L1094.9,839z"/>
</g>
<g>
	<path d="M1117.5,832.5c-0.7,0.1-1.3,0.4-1.7,0.5L1117.5,832.5z"/>
	<path d="M1117.5,832.5c-0.7,0.1-1.3,0.4-1.7,0.5L1117.5,832.5L1117.5,832.5z"/>
</g>
<g>
	<path d="M1072,243c0.3-0.2,0.6-0.4,0.9-0.6C1072.6,242.6,1072.3,242.8,1072,243z"/>
	<path d="M1072.9,242.4C1072.9,242.4,1072.9,242.4,1072.9,242.4C1072.9,242.4,1072.9,242.4,1072.9,242.4L1072.9,242.4z
		 M1072.9,242.4c-0.3,0.2-0.6,0.4-0.9,0.6C1072.3,242.8,1072.6,242.6,1072.9,242.4L1072.9,242.4z"/>
</g>
<g>
	<path class="st0" d="M941.3,553.4c0.6-0.3,1.1-0.6,1.8-0.8c1.7-0.6,3.1-0.8,4.5-0.9c1.8-0.1,4.1-0.2,6.9-0.2
		c-1.2,0.8-2,1.6-2.6,2.2c-0.9,1-1.4,1.9-2.7,2.7c-0.5,0.3-1,0.5-1.2,0.6c-3.9,1.9-7.8,2-8.6,0.3c-0.4-0.8-0.1-1.7,0.6-2.7
		c0.1-0.1,0.2-0.2,0.3-0.3C940.6,554,941,553.7,941.3,553.4z"/>
	<path class="st0" d="M933.5,544.5c-0.6-1.1-1-2.1-1.2-2.8c-0.6-1.6-1-3-1.3-4c0.8,0.6,1.7,1.2,2.5,1.8c1,0.7,2,1.4,3,2
		c0.5,0.3,3.2,1.8,3.7,4.8c0.1,0.8,0.1,1.5,0,2c-2,0.8-3.3,0.4-3.7,0.2C935.3,548,934.7,546.8,933.5,544.5z"/>
	<path class="st0" d="M913.5,556.5c-0.2-0.4-0.6-1-1.2-2.8c-0.4-1-0.8-2.3-1.3-4c1.4,0.9,2.7,1.8,4.1,2.8c0.9,0.7,1.9,1.1,2.9,2.1
		c0.7,0.7,1.2,1.4,1.6,1.9c0.2,0.4,0.5,1,0.7,1.8c0.2,0.9,0.1,1.6,0,2c-1.4,0.2-2.9,0.1-4.5-1.3c0,0,0,0,0,0
		C915,558.5,914.2,557.7,913.5,556.5z"/>
	<path class="st0" d="M1034.3,432.1c0,0.2,0,0.4,0,0.5c0,0,0.1-0.1,0.1-0.1C1034.4,432.4,1034.4,432.3,1034.3,432.1z"/>
	<path class="st0" d="M1034.5,432.7c0,0,0-0.1,0-0.1c0,0-0.1,0.1-0.1,0.1c0,0.3,0.1,0.6,0.1,1C1034.5,433.3,1034.5,433,1034.5,432.7
		z"/>
	<path class="st0" d="M1106,138.3c1.3-18.1,1.1-36.3,1-55.3c0-3.8-0.2-12.2-0.6-21c-0.1-2.3-0.2-4.9-0.5-8.4
		c-0.5-7.4-1-12.8-1.3-15.1c-0.5-4.6-1-8.9-1.5-12.6C1100.6,10.1,1099,0,1099,0h-14c1.8,16.8,2.4,30.9,2.6,41.4
		c0.2,9.9-0.1,19.1-0.6,37.6c-0.3,11.1-0.5,15.7-1,21c-0.9,10.7-2.4,19.9-3,24c-1.5,9.4-1.9,9.9-3,18c-1.1,8.2-0.9,9.4-2,15
		c-1.1,5.4-2.4,9.7-4,15c-0.8,2.5-2.1,6.7-4,12c-2.8,7.6-4.2,11.5-6.8,16c-2,3.6-3.5,5.2-4.4,7c0,0,0.1,0,0.1,0
		c0.1,0.1-0.2,0.6-0.7,1.6c-0.1,0.4-0.2,0.9-0.3,1.4c-0.8,5.3,1.7,9.5,2,10c1.9,3.1,4.3,4.6,5,5c2.5,1.5,4.8,1.8,7,2
		c4.3,0.5,6.9-0.3,7,0c0.1,0.4-4.5,2.1-10,2c-2.2,0-4-0.1-6-1c-3.7-1.7-6.3-5.4-7-9c-0.8-4.4,1.2-8.3,2.3-10.4
		c0.2-0.5,0.4-1,0.6-1.5c-1.1,0.7-7.6,14.6-20.8,22.7c-4.4,2.7-8.5,4.1-11.4,4.9c-1.3-5.5-2.9-11.8-5.5-20.6c0,0-0.8-3-1.9-7.3
		c-1-4.3-2.3-10.1-3.1-15.7c-0.4-3-0.9-11.4-1.7-28.2c0,0-0.3-7.5-1.3-14.6c0-0.1,0-0.1,0-0.2c-0.2-1.3-0.3-2.5-0.5-3.7
		c0.2,1.1,0.3,2.3,0.5,3.6c-0.4-13.4-0.9-24.6-1.4-34c-3.8,1.1-8.5,0.5-11.9-2.8c3.3,0.7,8.4,1.3,11.7-0.1
		c-0.7-12.2-1.4-21.1-2.1-27.9c0,0,0-0.5-0.1-0.8c-1.7-12.3-3.2-24.6-3.8-37c-1.4-13.5-2.7-27.2-3.8-41V0h-13.4c-0.3,10-1,20-1.3,30
		h0.2l-0.1,115.6c2.6-0.6,5.1-0.6,7.7-0.6c-0.7,0.5-1.5,1.1-2.2,1.6c1.3,0.2,2.7,0.1,4.2-0.6c0,3-2,2-4,2c2,1,4,0,6,2
		c-3.9,0.8-7.8,2.2-11.7,1.3l-0.1,160.5l-1,50.5c0.1,2.4,0.1,5.8-0.1,9.7c-0.4,7.1-1.2,10.4,0,11c0.4-0.6,1.2-0.9,2.1-0.9
		c2.7-2.2,4.9-2.6,6.4-2.6c2,0,2.5,0.9,5,1c1.3,0.1,1.9-0.1,6-1c3.5-0.7,5.3-1.1,6-1c3.4,0.6,6.7,4.4,6,6c-0.8,1.8-8.4,0.7-23.5-1.5
		c-2.5-0.4-4.5-0.7-5.9-0.9c-0.8,0.8-1.5,1.2-2.1,0.9c-0.5,0.6-0.3,1.4-0.4,3.7c-0.1,2.1-0.3,3.8-0.5,4.8c0,18-0.1,45.5-0.1,79.5v29
		c0,4,0,8.4,0,13.1c1.9,2.2,6,6.3,12.5,8.4c12.6,4,23.4-3,25-4c-0.7,1-6.3,9.2-17,10c-10.9,0.8-17.7-6.6-18.5-7.5
		c-1-0.5-1.5-1.7-2-3.1c0,26.1,0,62.8-0.1,114.1c-1.3-1.5-3.3-3.6-5.9-6c-6.7-5.9-16.8-12.6-22-16c-11.6-7.6-16.1-8.5-19.1-11.5
		c-0.7-0.8-1.2-1.4-1.9-2.5c-5.2-8.1-3-18-1.5-25.1c0.7-3.2,1.5-5.7,2-7.4c2.7-9,6.6-14.4,6.5-14.5c-0.2-0.1-2.3,2.4-4.8,6.5
		c-1.1,1.5-2.4,3.5-3.7,6c-0.6,1.1-1.7,3.3-3,6.9c-1.2,3.2-2.8,8-4,14.3c-0.8-1.8-1.6-3.8-2.2-5.9c-0.8-2.7-1.5-5.4-1.9-8
		c0.1-0.2,0.1-0.4,0.1-0.6c0-0.3-0.1-0.6-0.4-0.9c-1.4-9.1-0.5-15.9-0.9-15.9c-0.3,0-0.5,4.3-0.7,7.5c0,0.3-0.1,0.9-0.1,1.5
		c-0.1,1.2-0.1,1.9-0.1,3.7c0,0.5,0,1.2-0.1,2.1c-1.5-0.5-3.7-0.6-6.1-0.3c-0.2,0-0.5,0.1-0.8,0.1c-0.4,0.1-0.7,0.1-1.1,0.2
		c-0.8,0.2-1.5,0.6-2.2,1c-0.7,0.4-1.3,0.8-2,1.3c-0.5,0.3-1,0.7-1.6,0.9c-0.2,0.1-0.4,0.3-0.5,0.4c0,0,0,0,0,0
		c0.3,0.1,0.9,0.3,1.5,0.5c1.2,0.4,2,0.7,3,1c0.7,0.2,1.7,0.6,3,1c0.8,0.2,2.3,0.5,4,0c0.5-0.1,1.2-0.4,2-1c0.4-0.3,0.7-0.7,0.8-0.9
		c0.1,8.3,1,11.3,2.3,13.8c1.1,2.1,2.4,3.9,2.8,4.4c0.2,0.2,0.4,0.5,0.6,0.7c0,0.1,0,0.2,0,0.3v0c0.1,0.1,0.2,0.2,0.2,0.3
		c0.3,3.5,1.1,6.8,2.8,10c5.6,10.5,15.5,9.3,32,24c10.7,9.5,16.3,18.8,22,28c0.3,0.5,0.6,1,0.9,1.5l-0.3,372.5l57,0.1l0-67.3
		c-3.1,1.5-10.3,4.4-19.6,3.3c-12.2-1.4-19.8-8.7-22-11c3.8,2.3,11.9,6.6,23,7c7.9,0.3,14.2-1.5,18-3c0.2-10,0.4-20.1,0.7-30.1
		c-2.3,1.2-11.2,5.2-21.7,2.1c-5.9-1.7-9.9-5-12-7c2.8,1.7,9.7,5.3,19,5c6.9-0.2,12.2-2.5,15-4c-0.1-76.2-0.1-152.4-0.1-228.6
		c-0.4-9.5-0.8-18.9-1.3-28.4c-1.1-24.1-2.1-48.2-3-72.4c-1.6,1-4.8,2.6-9.1,2.8c-5.9,0.4-10.4-2-12-3c2.4,0.6,7.3,1.5,13,0
		c3.6-0.9,6.2-2.5,8-3.7c0-8.3-0.1-21.5-0.5-37.8c-0.4-18-0.8-21.6-1-36c-0.4-22.5,0.3-23.7,0-44c-0.2-14.1-0.7-24.3-1.2-31.5
		c0-0.4-0.7,14.5-0.8,14.5c0,0,0.1-5.1,0.4-17.3c-0.5,1.6-2.2,2.5-4.3,3.2c-0.1,0.1-0.1,0.1-0.2,0.2c-0.9,0.9-2.8,2.9-5,4
		c-3.5,1.7-7,1.8-12,1c-10.8-1.7-20.3-6.2-20-7c0.2-0.4,3.4,0.6,17,3c3,0.5,8.5,1.2,15,0c1.7-0.3,3.5-0.6,5.2-1.2
		c1.9-1.9,3.3-3.8,4.2-5.2c0-0.2,0-0.4,0-0.5c-0.2-0.6-0.5-1.2-0.8-1.6c0.1-2.4,0-5-0.4-7.7c0-0.2-0.1-0.5-0.1-0.7
		c0.1,0.5,0.7,3.4,1.3,10c0,0.1,0.1,0.3,0.1,0.4c0,0,0,0,0-0.1c0,0.1,0,0.1,0,0.2c0.1,0.5,0.2,1.1,0,1.7c0.1,1,0.2,2,0.2,3.1
		c0.2-8.9,0.2-18.5,0.2-18.5c0.1-13.6,0.1-20.5,0-24c-0.6-21.6-2.6-23-3-42.3c-0.3-14.1,0.8-15.4,0-29.7c-0.4-7.3-0.6-14.7-1-22
		c-0.3-6-0.4-8.5-0.3-12.3c0.1-7,0.2-10.5,0.3-11.7c0.3-3,0.7-5.8,0-6c-0.5-0.2-1.3,1.2-2,2c-1.6,2-4.8,4-12,4c-2.4,0.3-3,0.2-3,0
		c-0.2-0.9,12.8-3.6,25-10c7.4-3.9,11.8-7.8,20-15c10.4-9.2,19-16.7,26-29c3.5-6.2,5.7-11.9,7-16.3c-0.3,0.6-0.7,1.3-1.1,2
		c-1.5,3-3.7,5.8-6.9,7.2c-4.4,2-10.3,1.2-14-2c-3.9-3.3-4.6-8.7-4-9c0.6-0.3,2.4,4.6,8,8c1.4,0.9,2.9,1.7,5,2c4.7,0.6,8.3-2.4,9-3
		c1.2-1,2.2-2.1,2.9-3.2c0.9-1.7,1.5-3.5,2-5.2c0.8-3.4,1.1-5.5,1.1-5.6c0,0.2-0.2,2.6-1.1,5.6c-0.2,0.9-0.5,2-0.9,3.1
		c0.2-0.5,0.6-1.5,1-2.7c7.5-21.1,11-41.2,12.7-61.5c-2.5-0.2-5.1-1-7.7-1.5c0,0,0-2,0-3C1100.7,139.6,1103.4,139.2,1106,138.3z
		 M1005,675.6c0-0.4,0-0.6,0-0.6c4-2,8,2,9,5c3,8,4,16,1,23c-2,5-7,8-12,5C993.3,701.2,993.9,683.1,1005,675.6z M1028.4,779.4
		c0.2,0.3-6.8,6.4-16,8.9c-4.9,1.4-9.2,1.3-11.9,1.2c-1.9-0.2-6.9-0.9-10.7-4.8c-0.9-1-1.6-2-2.2-3c1.7,0.5,3.5,1.2,5.4,1.9
		c2.3,0.9,4.5,1.9,6.5,2.9c2.2,0.3,5.3,0.6,9,0c2.9-0.4,5.2-1.2,7-2c4.8-1.6,8.5-3.1,11.1-4.3
		C1027.9,779.6,1028.4,779.3,1028.4,779.4z M1025.6,696.1c0.6,0.1,0.4,3.8-0.5,7c-0.6,2.4-2.7,8.5-8.6,12.1
		c-2.3,1.4-4.4,1.9-5.3,2.1c-3.7,0.8-7.9,0.3-8-0.5c-0.1-1.2,8.2-0.6,14.4-6.1C1024.2,704.9,1024.7,695.8,1025.6,696.1z"/>
	<path class="st0" d="M1034.5,434.4c0-0.2,0-0.5-0.1-0.7c0,0.3,0,0.7,0,1c0-0.1,0-0.1,0.1-0.2
		C1034.5,434.5,1034.5,434.4,1034.5,434.4z"/>
	<path class="st0" d="M1034.4,432.7c-0.9,1.4-2.3,3.2-4.2,5.2c2.1-0.7,3.8-1.6,4.3-3.2c0-0.3,0-0.7,0-1
		C1034.4,433.3,1034.4,433,1034.4,432.7z"/>
	<path class="st0" d="M1034.5,434.4c0.1-0.6,0.1-1.1,0-1.7c0,0.3,0,0.7,0,1C1034.5,433.9,1034.5,434.1,1034.5,434.4z"/>
	<path class="st0" d="M1034.5,432.5C1034.5,432.5,1034.5,432.5,1034.5,432.5c0,0.1,0,0.1,0,0.2
		C1034.5,432.6,1034.5,432.6,1034.5,432.5z"/>
</g>
<g>
	<path d="M1189.8,765.8c0.1-0.2,0.2-0.5,0.2-0.8C1189.9,765.3,1189.9,765.5,1189.8,765.8z"/>
	<path d="M1190,765c-0.1,0.3-0.1,0.5-0.2,0.8C1189.9,765.5,1190,765.3,1190,765L1190,765z"/>
</g>
<g>
	<path d="M1161.5,1024.5v-75.9c2.6,2.5,5.5,4.2,8.4,4.9c1.9,0.8,4.1,1.2,6.2,1.2c1,0,2.1-0.1,3.1-0.3c3.5-0.6,6.1-2.2,7.6-3.5
		l1.8-1.5l-2.3,0.6c-1.8,0.5-3.7,0.8-5.6,1c-1,0.1-2.6,0.3-4.4,0.3c-1.4,0-2.7-0.1-3.8-0.3c-5-0.9-8.8-4-11.1-6.5v-41.1l0.9-1.1
		c5.2-6.4,7.1-7.4,7.7-7.4c0.1,0,0.1,0,0.1,0c0.4,0.2,0.3,1.5,0.2,2.5c-0.1,2.2-0.2,4.8,1.7,6.4c1.2,1,2.8,1.1,3.3,1.1
		c2.3,0,3.8-1.6,4.4-2.2c0.6-0.7,2.7-3,2.1-5.5c-0.5-2.4-3.2-3.7-4.9-4.5c0.9,0.1,2.1,0.5,3.2,1.1c1.3,0.7,2,1.4,2.7,2.1
		c0.6,0.7,1.3,1.3,2.3,1.9c1.1,0.6,2.4,0.9,3.9,0.9c0.7,0,1.5-0.1,2.3-0.2v125.9H1161.5z M1166.6,904.2c1.8,3.6,4.4,5.5,7.5,5.5
		c0.7,0,1.4-0.1,2.1-0.3c2-0.7,6.9-2.6,9.3-6.2l1-1.6l-1.7,0.8c-3.6,1.8-7.2,3.6-10.8,3.6c0,0,0,0,0,0c-2.4,0-4.6-0.8-6.7-2.6
		l-1.8-1.5L1166.6,904.2z M1161.5,647.4c2.4,2.1,5.5,3.2,9.2,3.2c3.7,0,7.6-1.2,10.6-3.2l1.8-1.2l-2.2,0.3c-0.6,0.1-1.2,0.2-1.9,0.3
		c-2.8,0.4-5.7,0.9-8.5,0.9c-4,0-6.9-0.9-9.1-2.8v-77.2l0.9-1.4c0.9-1.4,1.9-2.4,3-3c-0.8,0.6-1.3,1.4-1.7,2.6c-0.9,2.8,0,6.3,2,7.5
		c0.7,0.5,1.5,0.7,2.2,0.7c1.8,0,3.2-1.5,4.6-2.9c0.3-0.3,0.6-0.6,0.8-0.9l0.1-0.1l0-0.1c0.9-1.8,0.4-4.4-1.2-6.5
		c0.6,0.2,1.2,0.5,1.8,0.7c2.5,1,5,2.1,7.7,2.1c0.4,0,0.8,0,1.2-0.1l1.5-0.2l-1.3-0.7c-0.8-0.4-1.6-0.9-2.5-1.5
		c-4-2.4-8.9-5.4-12.8-5.4c-3.5,0-5.7,2.4-6.5,7.2l0,0v-48.5h30.1c0.1,0.9,0.2,2,0.3,3.2c0.1,0.8,0.1,1.4,0.1,1.8
		c0.1,1.7,0.1,2.8,0,4.4c0,0.7,0,1.6,0,2.6c0,2.2,0.1,3.3,0.1,3.9c0,0.6,0,0.6-0.1,1c-0.6,1.9-2.5,3.5-5.7,4.7c-2.2,1-4.5,1.7-6.9,2
		c-0.8,0.1-1.6,0.1-2.4,0.1s-1.6,0-2.4-0.1l-2.3-0.3l2,1.2c2,1.2,4.1,1.9,6.2,2.1c0.3,0,0.7,0,1,0c1.5,0,2.9-0.3,5-0.7
		c1.7-0.4,3.4-0.8,5-1.4v224.2l-1.3,1c-0.9,0.7-1.9,1.4-2.9,2c-0.6,0.4-1.3,0.7-2,1c-2.8,1.4-5.7,2.1-8.7,2.2c-0.2,0-0.5,0-0.7,0
		c-4.9,0-8.8-1.7-11.2-3.2l-3.1-1.9l2.5,2.7c2,2.1,4.5,3.8,7.2,4.8c2,0.7,4.1,1.1,6.2,1.1c0.9,0,1.7-0.1,2.5-0.2
		c1.7-0.3,3.2-0.8,4.7-1.6c3.3-1.7,5.2-4.3,6.2-6.2l0.6-1v19c-4.4,3.2-9.7,5-15.3,5c-4.4,0-8.8-1.1-13-3.1l-0.5,0.9
		c4.8,3.2,10.6,5.1,15.9,5.1c4,0,9.3-1.1,12.9-5.9v109.7c-1.7-0.5-3.3-1.3-4.7-2.2c-0.6-0.4-1-0.7-1.7-1.3c-0.7-0.6-1.6-1.4-3.3-2.7
		c-1.9-1.5-2.4-1.8-3.1-2.1c-0.8-0.3-1.6-0.4-2.5-0.4c-1.2,0-2.2,0.3-2.8,0.4c-2.5,0.7-4.2,2.1-5.2,3.1c-1.9,1.5-3.6,3.4-4.8,5.5
		c-0.8,1.3-1.4,2.7-1.8,4.2l0,0.1V647.4z M1161.5,572c0,4.2,4.5,8.4,7.7,8.4c1,0,1.7-0.4,2.2-1.1c2.6-2.6,5.3-4.3,7.9-6.1
		c1.3-0.9,2.7-1.8,4-2.8l1-0.7l-1.2-0.2c-0.4,0-0.7-0.1-1.1-0.1c-2.9,0-5.5,1.4-8,2.7c-2.2,1.2-4.3,2.3-6.4,2.3
		c-1.8,0-3.5-0.9-5.1-2.8l-0.9-1V572z"/>
	<path d="M1191.1,518c0.1,0.9,0.2,1.8,0.3,2.7c0.1,0.7,0.1,1.4,0.1,1.8c0.1,1.7,0.1,2.8,0,4.4c0,0.7,0,1.6,0,2.6
		c0,2.3,0.1,3.3,0.1,3.9c0,0.5,0,0.5,0,0.8c-0.6,1.8-2.4,3.2-5.4,4.4l0,0l0,0c-2.1,1-4.4,1.6-6.7,1.9c-0.8,0.1-1.6,0.1-2.4,0.1
		c-0.8,0-1.6,0-2.4-0.1l-4.6-0.5l3.9,2.4c2.1,1.2,4.2,2,6.4,2.1c0.4,0,0.7,0,1,0c1.6,0,3-0.3,5.1-0.8c1.5-0.3,3-0.7,4.4-1.2v223.2
		l-1.1,0.9c-0.9,0.7-1.9,1.4-2.9,1.9c-0.6,0.3-1.3,0.7-2,1c-2.7,1.3-5.5,2-8.5,2.1c-0.2,0-0.4,0-0.7,0c-4.8,0-8.6-1.7-10.9-3.1
		l-3-1.9V648.5c2.4,1.8,5.3,2.7,8.7,2.7c3.8,0,7.7-1.2,10.9-3.3l3.7-2.4l-4.4,0.6c-0.6,0.1-1.2,0.2-1.9,0.3
		c-2.8,0.4-5.6,0.9-8.4,0.9c-3.8,0-6.5-0.8-8.6-2.5v-68.9c1.6,2.9,4.7,5.3,7.2,5.3c1.1,0,2-0.4,2.6-1.3c2.6-2.6,5.1-4.2,7.8-6
		c1.3-0.9,2.7-1.8,4-2.8l2-1.5l-2.5-0.3c-0.4,0-0.8-0.1-1.2-0.1c-3,0-5.7,1.4-8.3,2.8c-0.6,0.3-1.2,0.7-1.8,0.9
		c0.4-0.4,0.7-0.7,1-1.1c0.3-0.3,0.6-0.6,0.8-0.9l0.1-0.1l0.1-0.1c0.8-1.6,0.6-3.7-0.4-5.7c0.1,0.1,0.3,0.1,0.4,0.2
		c2.5,1,5.1,2.1,7.9,2.1c0.4,0,0.9,0,1.3-0.1l3-0.4l-2.6-1.5c-0.8-0.4-1.6-0.9-2.5-1.5c-4-2.4-9-5.4-13.1-5.4c-2.8,0-4.8,1.4-6,4
		V518H1191.1 M1163.2,566c-0.6,2.2-0.2,5.1,1.2,6.9c-0.6-0.4-1.1-0.9-1.7-1.6l-0.8-0.9v-2.7l0.8-1.2
		C1163,566.4,1163.1,566.2,1163.2,566 M1162,768.3l1.8,1.9c1.4,1.5,3.8,3.6,7.4,4.9c2,0.7,4.2,1.1,6.4,1.1c0.9,0,1.8-0.1,2.6-0.2
		c1.7-0.3,3.3-0.8,4.8-1.6c3-1.6,4.9-3.9,6-5.8v16.9c-4.3,3.1-9.4,4.7-14.8,4.7c-4.4,0-8.6-1-12.8-3.1l-1,1.7
		c4.9,3.3,10.8,5.2,16.2,5.2c5.2,0,9.4-1.7,12.4-5v107.6c-1.4-0.5-2.8-1.2-3.9-2c-0.6-0.4-1-0.7-1.7-1.3c-0.7-0.6-1.6-1.4-3.3-2.7
		c-1.8-1.4-2.4-1.8-3.3-2.2c-0.8-0.3-1.8-0.5-2.7-0.5c-1.3,0-2.3,0.3-2.9,0.4c-2.6,0.7-4.4,2.1-5.4,3.2c-2,1.6-3.7,3.5-4.9,5.7
		c-0.3,0.6-0.6,1.2-0.9,1.7V768.3 M1170,895.4c0.1,0.4,0.1,1.4,0,2c-0.1,2.1-0.2,5.1,1.9,6.8c1.4,1.1,3.1,1.2,3.6,1.2c0,0,0,0,0,0
		c0.2,0,0.5,0,0.7,0c-0.7,0.1-1.5,0.2-2.2,0.2c-2.3,0-4.4-0.8-6.3-2.4l-3.2-2.6C1168.1,896.3,1169.5,895.5,1170,895.4 M1181.7,895.5
		c0.3,0.3,0.6,0.6,0.9,0.9c0.6,0.7,1.3,1.4,2.5,2c1.2,0.6,2.6,1,4.1,1c0.6,0,1.2,0,1.8-0.1V1024h-29v-74.3c2.4,2.1,5.1,3.6,7.7,4.3
		c2,0.8,4.2,1.2,6.4,1.2c1.1,0,2.1-0.1,3.2-0.3c3.6-0.7,6.2-2.3,7.8-3.6l3.7-2.9l-4.6,1.2c-1.8,0.5-3.6,0.8-5.5,1
		c-1,0.1-2.5,0.3-4.4,0.3c-1.4,0-2.6-0.1-3.7-0.3c-4.8-0.8-8.4-3.8-10.7-6.2v-40.7l0.8-1c0.5-0.7,1-1.3,1.5-1.8l1.8,3.6
		c1.9,3.8,4.6,5.8,7.9,5.8c0.7,0,1.5-0.1,2.2-0.3l0,0l0,0c2-0.7,7-2.7,9.5-6.4l2.1-3.1l-3.4,1.7c-2.5,1.3-5,2.5-7.4,3.1
		c1.6-0.5,2.6-1.6,3-2c0.7-0.7,2.8-3.2,2.3-5.9C1182.3,896.6,1182,896,1181.7,895.5 M1192,517c-10.3,0-20.7,0-31,0v128
		c2.6,2.4,6,3.1,9.6,3.1c3.5,0,7.2-0.7,10.4-1.1c-2.9,1.9-6.6,3.1-10.3,3.1c-3.6,0-7.1-1.1-9.7-3.9v298.5c2.1,2.3,6,5.8,11.5,6.8
		c1.3,0.2,2.6,0.3,3.9,0.3c1.9,0,3.5-0.2,4.5-0.3c2.3-0.2,4.2-0.7,5.6-1c-1.2,1-3.7,2.7-7.4,3.4c-1.1,0.2-2.1,0.3-3,0.3
		c-2.8,0-5-0.7-6.1-1.2c-3.2-0.8-6.3-2.9-9-5.7v77.7h31V898c-1.1,0.2-2,0.3-2.8,0.3c-1.6,0-2.8-0.4-3.7-0.8c-2.1-1.1-2.4-2.6-5-4
		c-1.7-0.9-3.3-1.2-4.3-1.2c-0.4,0-0.7,0.1-0.7,0.2c-0.2,0.6,5.3,1.7,6,5c0.5,2.4-1.7,4.7-2,5c-0.5,0.5-1.9,2-4,2c0,0,0,0,0,0
		c-0.3,0-1.8,0-3-1c-2.9-2.4-0.5-8.2-2-9c-0.1-0.1-0.2-0.1-0.4-0.1c-1,0-3.2,1.6-8.1,7.6c0.4-1.2,0.9-2.6,1.8-4.1
		c1.5-2.6,3.4-4.4,4.7-5.4c0.8-0.8,2.4-2.3,5-3c0.6-0.1,1.5-0.4,2.6-0.4c0.7,0,1.5,0.1,2.4,0.4c0.7,0.3,1.1,0.5,3,2
		c3.4,2.7,3.8,3.2,5,4c1.2,0.8,2.9,1.8,5.5,2.5c0-37.3,0-74.7,0-112c-3,5-8,7-13.4,7s-11.1-2-15.6-5c4.3,2.2,8.8,3.2,13.2,3.2
		c5.7,0,11.3-1.8,15.8-5.2c0-81.6,0-163.2,0-244.8c-1.3,0.5-3.3,1.1-5.6,1.6c-2.1,0.4-3.4,0.7-4.9,0.7c-0.3,0-0.6,0-1,0
		c-1.3-0.1-3.5-0.5-6-2c0.7,0.1,1.6,0.1,2.5,0.1c0.8,0,1.6,0,2.5-0.1c3-0.3,5.4-1.2,7-2c4.1-1.6,5.5-3.5,6-5c0.3-0.8,0-0.6,0-5
		c0-3.1,0.2-4.5,0-7c0-0.4-0.1-1.1-0.1-1.8C1192.2,519.2,1192.1,517.9,1192,517L1192,517z M1162,566c0.8-5,3.1-6.8,6-6.8
		c4.6,0,10.8,4.3,15,6.8c-0.4,0-0.8,0.1-1.2,0.1c-5,0-9.6-3.9-13.9-3.9C1165.9,562.2,1163.9,563.2,1162,566L1162,566z M1167.9,573.7
		c-0.6,0-1.2-0.2-1.9-0.7c-3-2-3-10,2-10c1,0,2,0,3,0c2,2,3,5,2,7C1171.5,571.5,1169.9,573.7,1167.9,573.7L1167.9,573.7z
		 M1167.5,574.9c4.6,0,9.1-5,14.4-5c0.3,0,0.7,0,1,0.1c-4,3-8,5-12,9c-0.4,0.6-1.1,0.9-1.8,0.9c-2.8,0-7.2-4-7.2-7.9
		C1163.9,574.2,1165.7,574.9,1167.5,574.9L1167.5,574.9z M1175.9,772.8c0.2,0,0.5,0,0.7,0c4-0.1,7.1-1.4,8.9-2.2
		c0.6-0.3,1.3-0.6,2-1c1.2-0.7,2.2-1.3,3-2c-0.7,1.3-2.5,4.2-6,6c-1.7,0.9-3.3,1.3-4.5,1.5c-0.6,0.1-1.5,0.2-2.5,0.2
		c-1.6,0-3.7-0.2-6-1c-3.6-1.3-5.9-3.5-7-4.6C1166.2,770.6,1170.3,772.8,1175.9,772.8L1175.9,772.8z M1185,903c-2,3-6,5-9,6
		c-0.7,0.2-1.3,0.3-2,0.3c-3,0-5.4-1.9-7-5.3c2.3,1.9,4.7,2.7,7,2.7C1177.7,906.7,1181.3,904.8,1185,903L1185,903z"/>
</g>
<path class="st0" d="M1146.5,115.5"/>
<path class="st0" d="M1045.5,369.5"/>
<path class="st0" d="M1057.5,381.5"/>
<path class="st0" d="M1191.5,215.5"/>
<g>
	<path d="M1188.2,178.3c0.1-2.5,0.3-5.1,0.5-7.6c0.1-0.1,0.1-0.2,0.1-0.3c1.7-3.4,4.6-6,7.3-8.5c2.1-1.9,4.2-3.9,5.9-6.2
		c1-1.3,1.6-2.4,2.2-3.3c1-1.6,1.9-3.1,4.3-5.8c1-1.2,2.1-2.4,3.2-3.6c1.3-1.9,2.7-3.8,4.2-5.5c1.9-2.2,3.5-3.8,4.8-5.1
		c2.3-2.3,3.9-3.8,4.5-6.6c0.6-2.7,0.1-5-0.5-7.3c-0.5-2.2-1.2-3.5-2.1-5.3c-0.5-1-1.2-2.2-1.9-3.8c-0.9-2.1-1.7-4.1-2.2-5.6
		c0.1,0.2,0.2,0.4,0.3,0.5c2.6,5.5,7,14.8,11.2,14.8c0,0,0,0,0,0c0.1,0,0.2,0,0.3,0c4.3-0.5,6.5-10.6,8-17.4
		c0.3-1.3,0.6-2.6,0.8-3.5c0,1.1,0,2.9-0.3,6.3l-1,7.9c-0.6,1.3-1.3,2.6-2,3.9c-2.1,3.9-4.5,7.6-7,10.9c-2.7,3.5-5.7,6.9-8.9,9.9
		c-4.2,5.8-8.6,11.5-13,17.1c-3.2,4-6.6,8-10,11.9c-1.9,1.5-3.6,3.2-5.1,5.1C1190.5,173.4,1189.2,175.7,1188.2,178.3z"/>
	<path d="M1238.6,103.8c0,0.2,0,0.4,0,0.6l-0.5,4l-0.5,3.8c-0.6,1.3-1.2,2.6-1.9,3.8c-2,3.8-4.4,7.6-6.9,10.9
		c-2.7,3.5-5.7,6.8-8.9,9.9l-0.1,0.1l-0.1,0.1c-4.2,5.7-8.5,11.4-13,17c-3.2,4-6.6,8-9.9,11.9c-1.9,1.5-3.6,3.2-5.1,5.1
		c-1.1,1.5-2.1,3-2.8,4.6c0.1-1.6,0.2-3.1,0.4-4.7c0-0.1,0.1-0.1,0.1-0.2c1.7-3.3,4.4-5.8,7.2-8.4c2.1-1.9,4.2-4,6-6.3
		c1-1.4,1.6-2.4,2.3-3.4c1-1.6,1.9-3.1,4.2-5.8c1-1.2,2.1-2.4,3.2-3.5l0.1-0.1l0-0.1c1.3-1.8,2.7-3.7,4.1-5.4
		c1.9-2.2,3.5-3.8,4.8-5.1c2.4-2.3,4-3.9,4.7-6.8c0.7-2.8,0.1-5.2-0.5-7.6c-0.3-1.1-0.6-2-0.9-2.9c1.8,2.5,3.7,4.1,5.7,4.1
		c0.1,0,0.3,0,0.4,0C1234.6,119,1236.7,112,1238.6,103.8 M1239.5,96.5c-1.2,0-3.2,21.3-9,22c-0.1,0-0.2,0-0.3,0
		c-5.5,0-11.8-18-12.7-18c0,0,0,0,0,0c-0.4,0.2,1,4.6,3,9c2,4.5,3.2,5.6,4,9c0.5,2.3,1.1,4.5,0.5,7.1c-1,4.1-3.9,5.2-9.3,11.4
		c-1.9,2.3-3.4,4.2-4.2,5.5c-0.8,0.8-1.9,2-3.3,3.6c-3.8,4.5-4,5.7-6.5,9.2c-4,5.4-10.2,8.9-13.3,14.9c-0.1,0.1-0.1,0.2-0.2,0.3
		c-0.3,3.7-0.6,7.4-0.5,11.2c0.6-2.4,1.8-6.3,4.7-10.2c1.7-2.2,3.5-3.9,5-5c3.3-3.8,6.6-7.8,10-12c4.6-5.8,9-11.5,13-17
		c3.8-3.6,6.8-7.1,9-10c1.1-1.5,4-5.4,7-11c0.9-1.6,1.5-3,2-4c0.3-2.7,0.7-5.3,1-8C1239.8,100.4,1240,96.6,1239.5,96.5
		C1239.5,96.5,1239.5,96.5,1239.5,96.5L1239.5,96.5z"/>
</g>
<g>
	<path d="M1213.4,103.5c-0.2,0-0.3,0-0.5,0c-1.4-0.4-2.9-0.9-4.2-1.7c-0.3-0.2-0.5-0.3-0.8-0.5c0.7-0.5,1.8-1.3,2-1.4
		c1.1-0.8,2.4-0.9,2.7-0.9c1.4,0,2.4,0.7,2.7,0.9c1.8,1.2,1.8,2,1.8,2.2C1216.9,102.7,1215.5,103.5,1213.4,103.5L1213.4,103.5z"/>
	<path d="M1212.5,98.5v1c1.2,0,2.1,0.6,2.4,0.8c1.5,1.1,1.6,1.7,1.6,1.7c0,0.3-1.1,1-3.1,1c-0.1,0-0.3,0-0.4,0
		c-1.5-0.4-2.8-0.9-4.1-1.6c0,0-0.1,0-0.1-0.1c0.6-0.4,1.1-0.8,1.3-1c1-0.7,2.2-0.8,2.4-0.8L1212.5,98.5 M1212.5,98.5
		C1212.5,98.5,1212.5,98.5,1212.5,98.5c-0.3,0-1.8,0-3,1c0,0-1.7,1.3-2.3,1.6c-0.1,0.1-0.2,0.1-0.2,0.1c0,0-0.1,0-0.1,0c0,0,0,0,0,0
		c0.5,0.3,1,0.6,1.5,1c1.6,0.9,3.2,1.4,4.5,1.7c0.2,0,0.4,0,0.6,0c2.3,0,3.9-0.8,4-1.8c0.2-1.1-1.6-2.4-2-2.7
		C1215.1,99.2,1214,98.5,1212.5,98.5L1212.5,98.5z"/>
</g>
<g>
	<path d="M1236.6,98.2c-0.6,0-1.3-0.3-2.1-0.8c-1.5-0.7-2.3-1.7-2.7-2.2c-0.9-1.1-1.5-2.4-1.9-3.8c0-1.4-0.1-2.7-0.1-4.1
		c0-0.7,0-1.3,0-2c1,0.5,1.7,0.8,2.4,1.1c0.4,0.2,0.9,0.4,1.4,0.6c1,0.5,1.5,0.7,1.9,1c1.8,1.4,2.2,3.8,2.3,4.6c0.3,2,0.2,5-1,5.5
		C1236.9,98.1,1236.8,98.2,1236.6,98.2L1236.6,98.2z"/>
	<path d="M1230.4,86.2c0.7,0.3,1.2,0.5,1.8,0.8c0.4,0.2,0.9,0.3,1.4,0.6c1,0.4,1.4,0.7,1.8,0.9c1.7,1.3,2,3.5,2.1,4.2
		c0.4,2.3,0.1,4.7-0.7,5c-0.1,0-0.1,0-0.2,0c-0.4,0-1.1-0.3-1.8-0.7c-1.4-0.7-2.1-1.6-2.5-2.1c-0.8-1-1.4-2.2-1.8-3.5
		c0-1.3-0.1-2.7-0.1-4C1230.4,86.9,1230.4,86.5,1230.4,86.2 M1229.5,84.5C1229.5,84.5,1229.5,84.5,1229.5,84.5
		c-0.1,0.9-0.1,1.9-0.1,2.8c0,1.4,0,2.8,0.1,4.2c0.3,1,0.8,2.5,2,4c0.4,0.5,1.3,1.6,2.8,2.4c0.9,0.4,1.6,0.8,2.3,0.8
		c0.2,0,0.4,0,0.6-0.1c1.7-0.7,1.6-4.3,1.3-6.1c-0.1-0.8-0.6-3.4-2.5-4.9c-0.4-0.3-1-0.6-2-1.1c-1.4-0.6-2.3-0.9-4-1.8
		C1229.8,84.7,1229.6,84.6,1229.5,84.5L1229.5,84.5z"/>
</g>
<g>
	<path d="M1242.3,96.2c-0.8,0-1.4-0.2-1.5-0.4c-0.3-0.6,0.6-2.2,2.6-4c1.6-0.6,3.2-0.9,4.9-1.1c0.4,0,0.8,0,1.1-0.1
		c-0.6,1.2-1,2.4-1.1,2.6c-0.1,0.3-0.2,0.7-0.6,1.3c-0.2,0.3-0.4,0.4-0.7,0.6c-0.2,0.1-0.3,0.2-0.4,0.3
		C1246.4,95.5,1244.1,96.2,1242.3,96.2L1242.3,96.2z"/>
	<path d="M1248.7,91.2c-0.4,1-0.7,1.8-0.8,1.9c-0.1,0.2-0.2,0.6-0.6,1.1c-0.1,0.2-0.3,0.3-0.5,0.4l0,0l0,0c-0.1,0.1-0.2,0.2-0.3,0.2
		c-0.3,0.2-2.5,0.8-4.1,0.8c-0.8,0-1-0.2-1-0.2c0,0,0,0,0,0c-0.1-0.3,0.6-1.7,2.5-3.3c1.5-0.5,3.1-0.9,4.6-1
		C1248.5,91.2,1248.6,91.2,1248.7,91.2 M1249.7,90.2c-0.4,0-0.9,0-1.4,0.1c-2,0.2-3.7,0.6-5.1,1.1c-2,1.7-3.3,3.6-2.8,4.6
		c0.3,0.5,1,0.7,1.9,0.7c1.8,0,4.3-0.8,4.6-0.9c0.1-0.1,0.3-0.2,0.4-0.3c0.3-0.1,0.6-0.4,0.8-0.7c0,0,0,0,0,0
		c0.4-0.6,0.6-1.2,0.7-1.4c0-0.1,0.5-1.5,1.2-2.8c0.1-0.1,0.1-0.3,0.2-0.4c0,0,0,0,0,0C1250.1,90.2,1249.9,90.2,1249.7,90.2
		L1249.7,90.2z"/>
</g>
<g>
	<path d="M1217.8,99.6c-0.1,0-0.2,0-0.3,0c-0.7-0.1-1.7-0.8-2.5-3.2c-1-3,0.5-5.8,1-6.6c0.9-1.4,1.8-2.4,2.8-2.8
		c0.4-0.2,1.1-0.5,1.9-1.1c0.2-0.1,0.3-0.3,0.5-0.4c0.7,2,1.7,3.8,1.7,3.9c0.2,0.4,0.5,1,0.7,1.9c0,0,0.1,0.7-0.1,1.4
		C1223.1,93.5,1220.4,99.6,1217.8,99.6L1217.8,99.6z"/>
	<path d="M1220.8,86.3c0.6,1.7,1.4,3.1,1.5,3.3c0.2,0.3,0.5,0.9,0.6,1.8c0,0,0.1,0.5-0.1,1.1c-0.3,1.1-2.9,6.6-5,6.6
		c-0.1,0-0.2,0-0.2,0c-0.5-0.1-1.4-0.6-2.1-2.9c-1-2.8,0.4-5.4,0.9-6.1c0.9-1.4,1.7-2.2,2.6-2.6l0.1,0
		C1219.3,87.2,1220,86.9,1220.8,86.3 M1221.2,84.5c-0.2,0.2-0.5,0.6-1,0.9c-0.8,0.7-1.5,1-1.8,1.1c-0.8,0.4-1.8,1.1-3,3
		c-0.3,0.5-2.2,3.6-1,7c0.2,0.6,1.1,3.2,2.9,3.5c0.1,0,0.3,0,0.4,0c3.1,0,5.8-6.7,6-7.4c0.2-0.8,0.1-1.5,0.1-1.5c0,0,0,0,0,0
		c-0.2-1-0.6-1.8-0.7-2.1c-0.1-0.1-1-2-1.7-4C1221.4,84.8,1221.3,84.6,1221.2,84.5C1221.3,84.5,1221.3,84.5,1221.2,84.5L1221.2,84.5
		z"/>
</g>
<g>
	<path d="M1221.8,103c-0.8,0-1.3-0.2-1.4-0.5c-0.2-0.3,0-1,0.6-1.8c1.2-1.7,2.4-2.7,3.6-2.8c0.3,0,0.7,0,1.3,0c0.6,0,1.2,0,1.9,0
		c0.1,0,0.5,0,1.1,0h0c-0.6,1.2-1.1,2.3-1.1,2.4c-0.1,0.2-0.3,0.7-0.6,1.2l0,0v0c0,0-0.3,0.3-0.7,0.5
		C1226,102.2,1223.5,103,1221.8,103L1221.8,103z"/>
	<path d="M1227.9,98.4c-0.4,0.9-0.7,1.6-0.7,1.7c-0.1,0.2-0.2,0.6-0.6,1c0,0-0.2,0.3-0.5,0.4c-0.4,0.2-2.7,0.9-4.3,0.9
		c-0.8,0-1-0.2-1-0.2c0,0,0,0,0,0c0-0.1,0-0.5,0.5-1.3c1.1-1.6,2.2-2.5,3.3-2.6c0.3,0,0.7,0,1.2,0c0.6,0,1.3,0,1.9,0
		C1227.8,98.4,1227.8,98.4,1227.9,98.4 M1228.7,97.4c-0.6,0-1,0-1.1,0c-1.2,0.1-2.5,0-3.2,0.1c-1,0.1-2.4,0.7-4,3
		c-0.9,1.3-0.8,2-0.6,2.3c0.3,0.5,1,0.7,1.9,0.7c1.9,0,4.4-0.9,4.8-1.1c0.5-0.3,0.8-0.7,0.8-0.7c0,0,0,0,0,0
		c0.4-0.6,0.6-1.1,0.7-1.3c0-0.1,0.5-1.4,1.3-2.7c0.1-0.1,0.1-0.3,0.2-0.3c0,0,0,0,0,0c-0.2,0-0.3,0-0.5,0
		C1229,97.4,1228.9,97.4,1228.7,97.4L1228.7,97.4z"/>
</g>
<g>
	<path d="M1244.4,100.8c-0.5,0-1-0.1-1.2-0.1c-1-0.2-1.8-0.5-2-0.7c0.1-0.1,0.5-0.3,0.7-0.4c0.7-0.3,1.3-0.5,1.6-0.5
		c0.4-0.1,0.9-0.1,1.3-0.1c0.3,0,0.6,0,0.9,0c0.6,0.2,1.2,0.3,1.9,0.5c0.1,0,0.1,0,0.2,0c-0.1,0.1-0.3,0.2-0.4,0.2
		c-0.2,0.1-0.4,0.2-0.6,0.3c-0.4,0.2-0.7,0.4-0.9,0.4C1245.4,100.7,1245,100.8,1244.4,100.8L1244.4,100.8z"/>
	<path d="M1244.8,99.4c0.2,0,0.5,0,0.7,0c0.3,0.1,0.6,0.2,0.9,0.3c-0.4,0.2-0.6,0.3-0.8,0.4c-0.3,0.1-0.7,0.2-1.2,0.2
		c-0.5,0-0.9-0.1-1.1-0.1c-0.4-0.1-0.8-0.2-1.1-0.3c0.5-0.2,1-0.3,1.3-0.4C1243.9,99.4,1244.4,99.4,1244.8,99.4 M1244.8,98.4
		c-0.4,0-0.9,0-1.4,0.1c-0.4,0.1-1.1,0.2-1.8,0.6c-0.5,0.3-1,0.5-1,0.8c-0.1,0.6,1.6,1.1,2.5,1.3c0.2,0,0.7,0.1,1.3,0.1
		c0.5,0,1-0.1,1.5-0.2c0.3-0.1,0.5-0.2,1-0.5c0.6-0.3,1-0.6,1.7-1c0.1,0,0.2-0.1,0.2-0.1c0,0,0,0,0,0c-0.4-0.1-0.8-0.3-1.3-0.4
		c-0.7-0.2-1.3-0.4-1.9-0.6C1245.4,98.4,1245.1,98.4,1244.8,98.4L1244.8,98.4z"/>
</g>
<g>
	<line class="st1" x1="1125.8" y1="305.6" x2="1134.3" y2="298.3"/>
</g>
<g>
	<path class="st1" d="M1146.5,301.2C1146.5,301.2,1146.4,301.2,1146.5,301.2c-0.1,0.1-0.2,0.1-0.4,0.2c-1.2,0.4-1.7,0.8-2.6,1.2
		c-0.7,0.3-1,0.5-1.4,0.6c-1.7,0.4-3.3-0.5-3.8-0.8c-1.1-0.6-3.1-2.1-2.8-3.3c0.2-0.6,0.8-0.8,1.6-1.2c1.1-0.5,2-0.5,2.5-0.4
		c1.3,0,2.4,0.4,3.1,0.7c0.8,0.6,1.5,1.1,2.3,1.8C1145.5,300.4,1146,300.8,1146.5,301.2z"/>
	<path class="st2" d="M1146.5,301.2C1146.5,301.2,1146.4,301.2,1146.5,301.2c-0.1,0.1-0.2,0.1-0.4,0.2c-1.2,0.4-1.7,0.8-2.6,1.2
		c-0.7,0.3-1,0.5-1.4,0.6c-1.7,0.4-3.3-0.5-3.8-0.8c-1.1-0.6-3.1-2.1-2.8-3.3c0.2-0.6,0.8-0.8,1.6-1.2c1.1-0.5,2-0.5,2.5-0.4
		c1.3,0,2.4,0.4,3.1,0.7c0.8,0.6,1.5,1.1,2.3,1.8C1145.5,300.4,1146,300.8,1146.5,301.2z"/>
</g>
<g>
	<path class="st1" d="M1134.7,297.3c-0.4-0.2-0.5-0.6-0.7-1.1c-0.2-0.7-0.2-1.2-0.2-1.5c0.1-0.7,0.4-1.3,0.6-1.6
		c0.4-0.4,0.8-0.7,1.3-1.1c0.3-0.2,0.6-0.5,0.9-0.7l0,0c0,0.1,0,0.1,0.1,0.2c0.2,0.7,0.5,1.1,0.7,1.7c0.2,0.4,0.3,0.7,0.3,0.9
		c0.2,1-0.5,1.8-0.7,2C1136.6,296.7,1135.5,297.7,1134.7,297.3z"/>
	<path class="st2" d="M1134.7,297.3c-0.4-0.2-0.5-0.6-0.7-1.1c-0.2-0.7-0.2-1.2-0.2-1.5c0.1-0.7,0.4-1.3,0.6-1.6
		c0.4-0.4,0.8-0.7,1.3-1.1c0.3-0.2,0.6-0.5,0.9-0.7l0,0c0,0.1,0,0.1,0.1,0.2c0.2,0.7,0.5,1.1,0.7,1.7c0.2,0.4,0.3,0.7,0.3,0.9
		c0.2,1-0.5,1.8-0.7,2C1136.6,296.7,1135.5,297.7,1134.7,297.3z"/>
</g>
</svg>
