<?xml version="1.0" encoding="utf-8"?>
<!-- Generator: Adobe Illustrator 22.0.1, SVG Export Plug-In . SVG Version: 6.00 Build 0)  -->
<svg version="1.1" id="Layer_1" xmlns="http://www.w3.org/2000/svg" xmlns:xlink="http://www.w3.org/1999/xlink" x="0px" y="0px"
	 viewBox="0 0 1280 1024" style="enable-background:new 0 0 1280 1024;" xml:space="preserve">
<style type="text/css">
	.st0{stroke:#000000;stroke-miterlimit:10;}
</style>
<g>
	<path class="st0" d="M973.3,553.4c0.6-0.3,1.1-0.6,1.8-0.8c1.5-0.5,3-0.7,4.5-0.9c1.9-0.2,4-0.5,5.7-0.1c-0.8,1.4-1.8,2.8-3,4.1
		c-0.7,0.5-1.5,0.9-2.3,1.4c-3.9,1.9-7.8,2-8.6,0.3c-0.4-0.8-0.1-1.7,0.6-2.7c0.1-0.1,0.2-0.2,0.3-0.3
		C972.6,554,973,553.7,973.3,553.4z"/>
	<path class="st0" d="M966.7,545.6c-1.8-2.6-3.5-5.2-3.7-7.9c2.7,1.8,5.5,3.7,8.2,5.9c1,1.9,1.5,3.7,1,4.7c-1.4,0.2-2.9,0.1-4.5-1.3
		c0,0,0,0,0,0C967.3,546.5,967,545.9,966.7,545.6z"/>
	<path class="st0" d="M946.7,557.6c-1.8-2.6-3.5-5.2-3.7-7.9c2.7,1.8,5.5,3.7,8.2,5.9c1,1.9,1.5,3.7,1,4.7c-1.4,0.2-2.9,0.1-4.5-1.3
		c0,0,0,0,0,0C947.3,558.5,947,557.9,946.7,557.6z"/>
	<path class="st0" d="M1066.3,432.1c0,0.2,0,0.4,0,0.5c0,0,0.1-0.1,0.1-0.1C1066.4,432.4,1066.4,432.3,1066.3,432.1z"/>
	<path class="st0" d="M1066.5,432.7c0,0,0-0.1,0-0.1c0,0-0.1,0.1-0.1,0.1c0,0.3,0.1,0.6,0.1,1C1066.5,433.3,1066.5,433,1066.5,432.7
		z"/>
	<path class="st0" d="M1130,138c2.7,1.6,5.4,1.2,8,0.3c1.3-18.1,1.1-36.3,1-55.3c0-3.8-0.2-12.2-0.6-21c-0.1-2.3-0.2-4.9-0.5-8.4
		c-0.5-7.4-1-12.8-1.3-15.1c-0.5-4.6-1-8.9-1.5-12.6C1132.6,10.1,1131,0,1131,0h-14c1.8,16.8,2.4,30.9,2.6,41.4
		c0.2,9.9-0.1,19.1-0.6,37.6c-0.3,11.1-0.5,15.7-1,21c-0.9,10.7-2.4,19.9-3,24c-1.5,9.4-1.9,9.9-3,18c-1.1,8.2-0.9,9.4-2,15
		c-1.1,5.4-2.4,9.7-4,15c-0.8,2.5-2.1,6.7-4,12c-2.8,7.6-4.2,11.5-6.8,16c-2,3.6-3.5,5.2-4.4,7c0,0,0.1,0,0.1,0
		c0.1,0.1-0.2,0.6-0.7,1.6c-0.1,0.4-0.2,0.9-0.3,1.4c-0.8,5.3,1.7,9.5,2,10c1.9,3.1,4.3,4.6,5,5c2.5,1.5,4.8,1.8,7,2
		c4.3,0.5,6.9-0.3,7,0c0.1,0.4-4.5,2.1-10,2c-2.2,0-4-0.1-6-1c-3.7-1.7-6.3-5.4-7-9c-0.8-4.4,1.2-8.3,2.3-10.4
		c0.2-0.5,0.4-1,0.6-1.5c-1.1,0.7-7.6,14.6-20.8,22.7c-4.4,2.7-8.5,4.1-11.4,4.9c-1.3-5.5-2.9-11.8-5.5-20.6c0,0-0.8-3-1.9-7.3
		c-1-4.3-2.3-10.1-3.1-15.7c-0.4-3-0.9-11.4-1.7-28.2c0,0-0.3-7.5-1.3-14.6c0-0.1,0-0.1,0-0.2c-0.2-1.3-0.3-2.5-0.5-3.7
		c0.2,1.1,0.3,2.3,0.5,3.6c-0.4-13.4-0.9-24.6-1.4-34c-3.8,1.1-8.5,0.5-11.9-2.8c3.3,0.7,8.4,1.3,11.7-0.1
		c-0.7-12.2-1.4-21.1-2.1-27.9c0,0,0-0.5-0.1-0.8c-1.7-12.3-3.2-24.6-3.8-37c-1.4-13.5-2.7-27.2-3.8-41V0h-13.4c-0.3,10-1,20-1.3,30
		h0.2l-0.1,115.6c2.6-0.6,5.1-0.6,7.7-0.6c-0.7,0.5-1.5,1.1-2.2,1.6c1.3,0.2,2.7,0.1,4.2-0.6c0,3-2,2-4,2c2,1,4,0,6,2
		c-3.9,0.8-7.8,2.2-11.7,1.3l-0.1,160.5l-1,50.5c0.1,2.4,0.1,5.8-0.1,9.7c-0.4,7.1-1.2,10.4,0,11c0.4-0.6,1.2-0.9,2.1-0.9
		c2.7-2.2,4.9-2.6,6.4-2.6c2,0,2.5,0.9,5,1c1.3,0.1,1.9-0.1,6-1c3.5-0.7,5.3-1.1,6-1c3.4,0.6,6.7,4.4,6,6c-0.8,1.8-8.4,0.7-23.5-1.5
		c-2.5-0.4-4.5-0.7-5.9-0.9c-0.8,0.8-1.5,1.2-2.1,0.9c-0.5,0.6-0.3,1.4-0.4,3.7c-0.1,2.1-0.3,3.8-0.5,4.8c0,18-0.1,45.5-0.1,79.5v29
		c0,26.4,0,67.5-0.1,131c-1.3-1.5-3.3-3.6-5.9-6c-6.7-5.9-16.8-12.6-22-16c-11.6-7.6-16.1-8.5-19.1-11.5c-0.7-0.8-1.2-1.4-1.9-2.5
		c-5.2-8.1-3-18-1.5-25.1c0.7-3.2,1.5-5.7,2-7.4c2.7-9,6.6-14.4,6.5-14.5c-0.2-0.1-2.3,2.4-4.8,6.5c-0.1,0.5-0.3,0.9-0.7,1.1
		c-3.9,6.5-8.7,16.3-10,26.1c-0.8-1.8-1.6-3.8-2.2-5.9c-0.8-2.7-1.5-5.4-1.9-8c0.1-0.2,0.1-0.4,0.1-0.6c0-0.3-0.1-0.6-0.4-0.9
		c-1.4-9.1-0.5-15.9-0.9-15.9c-0.3,0-0.5,4.3-0.7,7.5c0.5,1.2,0.5,2.2,0,2.8c0,0-0.1,0.1-0.1,0.1c-0.1,1.6-0.1,3.1-0.1,4.4
		c-1.5-0.5-3.7-0.6-6.1-0.3c-0.2,0-0.5,0.1-0.8,0.1c-0.4,0.1-0.7,0.1-1.1,0.2c-0.8,0.2-1.5,0.6-2.2,1c-0.7,0.4-1.3,0.8-2,1.3
		c-0.5,0.3-1,0.7-1.6,0.9c-0.2,0.1-0.4,0.3-0.5,0.4c0,0,0,0,0,0c0,0,0,0,0,0c0,0,0.1,0,0.1,0c0.7,0.3,1.4,0.6,2.2,1
		c0.1,0,0.2,0,0.3,0c0.2,0.2,0.8,0.2,1.1,0.2c0.5,0,0.9,0,1.4,0.1c0.1,0,0.3,0.1,0.4,0.1c0.5,0,1,0.1,1.5,0.1c0.7,0,1.3-0.1,2-0.1
		c0.6,0,1.2,0.1,1.8,0.2c0.1,0,0.1,0,0.1,0.1c0.1,0,0.2,0,0.3,0c1.2-0.3,2.2-0.7,3-1.2c0.1,8.3,1,11.3,2.3,13.8
		c1.1,2.1,2.4,3.9,2.8,4.4c0.2,0.2,0.4,0.5,0.6,0.7c0,0.1,0,0.2,0,0.3v0c0.1,0.1,0.2,0.2,0.2,0.3c0.3,3.5,1.1,6.8,2.8,10
		c5.6,10.5,15.5,9.3,32,24c10.7,9.5,16.3,18.8,22,28c0.3,0.5,0.6,1,0.9,1.5l-0.3,372.5l57,0.1l0-67.3c-3.1,1.5-10.3,4.4-19.6,3.3
		c-12.2-1.4-19.8-8.7-22-11c3.8,2.3,11.9,6.6,23,7c7.9,0.3,14.2-1.5,18-3c0.2-10,0.4-20.1,0.7-30.1c-2.3,1.2-11.2,5.2-21.7,2.1
		c-5.9-1.7-9.9-5-12-7c2.8,1.7,9.7,5.3,19,5c6.9-0.2,12.2-2.5,15-4c-0.1-76.2-0.1-152.4-0.1-228.6c-0.4-9.5-0.8-18.9-1.3-28.4
		c-1.1-24.1-2.1-48.2-3-72.4c-6.7,1.1-14.8-0.8-19.6-5.7c6.3,2.3,13.2,2.9,19.5,1.8c0-8.3-0.1-21.5-0.5-37.8c-0.4-18-0.8-21.6-1-36
		c-0.4-22.5,0.3-23.7,0-44c-0.2-14.1-0.7-24.3-1.2-31.5c0-0.4-0.7,14.5-0.8,14.5c0,0,0.1-5.1,0.4-17.3c-0.5,1.6-2.2,2.5-4.3,3.2
		c-0.1,0.1-0.1,0.1-0.2,0.2c-0.9,0.9-2.8,2.9-5,4c-3.5,1.7-7,1.8-12,1c-10.8-1.7-20.3-6.2-20-7c0.2-0.4,3.4,0.6,17,3
		c3,0.5,8.5,1.2,15,0c1.7-0.3,3.5-0.6,5.2-1.2c1.9-1.9,3.3-3.8,4.2-5.2c0-0.2,0-0.4,0-0.5c-0.2-0.6-0.5-1.2-0.8-1.6
		c0.1-2.4,0-5-0.4-7.7c0-0.2-0.1-0.5-0.1-0.7c0.1,0.5,0.7,3.4,1.3,10c0,0.1,0.1,0.3,0.1,0.4c0,0,0,0,0-0.1c0,0.1,0,0.1,0,0.2
		c0.1,0.5,0.2,1.1,0,1.7c0.1,1,0.2,2,0.2,3.1c0.2-8.9,0.2-18.5,0.2-18.5c0.1-13.6,0.1-20.5,0-24c-0.6-21.6-2.6-23-3-42.3
		c-0.3-14.1,0.8-15.4,0-29.7c-0.4-7.3-0.6-14.7-1-22c-0.3-6-0.4-8.5-0.3-12.3c0.1-7,0.2-10.5,0.3-11.7c0.3-3,0.7-5.8,0-6
		c-0.5-0.2-1.3,1.2-2,2c-1.6,2-4.8,4-12,4c-2.4,0.3-3,0.2-3,0c-0.2-0.9,12.8-3.6,25-10c7.4-3.9,11.8-7.8,20-15
		c10.4-9.2,19-16.7,26-29c3.5-6.2,5.7-11.9,7-16.3c-0.3,0.6-0.7,1.3-1.1,2c-1.5,3-3.7,5.8-6.9,7.2c-4.4,2-10.3,1.2-14-2
		c-3.9-3.3-4.6-8.7-4-9c0.6-0.3,2.4,4.6,8,8c1.4,0.9,2.9,1.7,5,2c4.7,0.6,8.3-2.4,9-3c1.2-1,2.2-2.1,2.9-3.2c0.9-1.7,1.5-3.5,2-5.2
		c0.8-3.4,1.1-5.5,1.1-5.6c0,0.2-0.2,2.6-1.1,5.6c-0.2,0.9-0.5,2-0.9,3.1c0.2-0.5,0.6-1.5,1-2.7c7.5-21.1,11-41.2,12.7-61.5
		c-2.5-0.2-5.1-1-7.7-1.5C1130,141,1130,139,1130,138z M1057.6,696.1c0.6,0.1,0.4,3.8-0.5,7c-0.6,2.4-2.7,8.5-8.6,12.1
		c-2.3,1.4-4.4,1.9-5.3,2.1c-3.7,0.8-7.9,0.3-8-0.5c-0.1-1.2,8.2-0.6,14.4-6.1C1056.2,704.9,1056.7,695.8,1057.6,696.1z M1037,675.6
		c0-0.4,0-0.6,0-0.6c4-2,8,2,9,5c3,8,4,16,1,23c-2,5-7,8-12,5C1025.3,701.2,1025.9,683.1,1037,675.6z M1030.4,785.6
		c7-0.5,14-0.9,20.9-1.3c7.4-4.2,9-4.9,9.1-4.8c0.2,0.3-6.9,6.4-16,8.9c-8.7,2.4-16.2,0.6-20.4-0.7c-1.4-2-2.9-4-4.3-6
		C1023.2,783,1026.8,784.3,1030.4,785.6z"/>
	<path class="st0" d="M1066.5,434.4c0-0.2,0-0.5-0.1-0.7c0,0.3,0,0.7,0,1c0-0.1,0-0.1,0.1-0.2
		C1066.5,434.5,1066.5,434.4,1066.5,434.4z"/>
	<path class="st0" d="M1066.4,432.7c-0.9,1.4-2.3,3.2-4.2,5.2c2.1-0.7,3.8-1.6,4.3-3.2c0-0.3,0-0.7,0-1
		C1066.4,433.3,1066.4,433,1066.4,432.7z"/>
	<path class="st0" d="M1066.5,434.4c0.1-0.6,0.1-1.1,0-1.7c0,0.3,0,0.7,0,1C1066.5,433.9,1066.5,434.1,1066.5,434.4z"/>
	<path class="st0" d="M1066.5,432.5C1066.5,432.5,1066.5,432.5,1066.5,432.5c0,0.1,0,0.1,0,0.2
		C1066.5,432.6,1066.5,432.6,1066.5,432.5z"/>
</g>
</svg>
