<?xml version="1.0" encoding="utf-8"?>
<!-- Generator: Adobe Illustrator 22.0.1, SVG Export Plug-In . SVG Version: 6.00 Build 0)  -->
<svg version="1.1" id="Layer_1" xmlns="http://www.w3.org/2000/svg" xmlns:xlink="http://www.w3.org/1999/xlink" x="0px" y="0px"
	 viewBox="0 0 1280 1024" style="enable-background:new 0 0 1280 1024;" xml:space="preserve">
<style type="text/css">
	.st0{filter:url(#Adobe_OpacityMaskFilter);}
	.st1{mask:url(#SVGID_1_);}
	.st2{fill:#101A28;}
	.st3{clip-path:url(#SVGID_10_);}
	.st4{clip-path:url(#SVGID_11_);}
	.st5{clip-path:url(#SVGID_12_);}
	.st6{clip-path:url(#SVGID_13_);}
	.st7{clip-path:url(#SVGID_14_);}
	.st8{clip-path:url(#SVGID_15_);}
	.st9{clip-path:url(#SVGID_16_);}
	.st10{clip-path:url(#SVGID_17_);}
	.st11{fill:#FFFFFF;stroke:#000000;stroke-miterlimit:10;}
	.st12{fill:#FFFFFF;}
</style>
<defs>
	<filter id="Adobe_OpacityMaskFilter" filterUnits="userSpaceOnUse" x="72" y="299" width="1171" height="474">
		<feFlood  style="flood-color:white;flood-opacity:1" result="back"/>
		<feBlend  in="SourceGraphic" in2="back" mode="normal"/>
	</filter>
</defs>
<mask maskUnits="userSpaceOnUse" x="72" y="299" width="1171" height="474" id="SVGID_1_">
	<g class="st0">
		<rect x="46" y="596" width="1223" height="205"/>
	</g>
</mask>
<g class="st1">
	<polygon class="st2" points="1023.3,603.2 1243,606.5 1110.6,471 1085.4,501 994.3,415.7 945.6,460.3 811.5,336 788.8,370 
		717.5,299 659.5,393.1 623.7,365.3 549.7,467.1 452.1,358.5 352.7,478.4 308,425.5 234.6,503 211.7,453 72,606.5 136.8,606.2 
		136.5,606.5 461,606.5 460.6,606 528.2,606 528.1,606 562.9,606 674.5,606 674.4,605.9 1025.5,605.5 	"/>
	<g>
		<defs>
			<path id="SVGID_2_" d="M812,376c0.7,13.7,1.3,27.3,2,41c-2.3,15.7-4.7,31.3-7,47c-15.1,18-30.1,36-45.2,54
				c8.4-25.3,16.8-50.7,25.2-76c-15.3,17.7-30.7,35.3-46,53c8.5-17.9,17-35.8,25.5-53.7L812,359V376z"/>
		</defs>
		<defs>
			<path id="SVGID_3_" d="M627,404c-0.7,12.3-1.3,24.7-2,37c-3,12-6,24-9,36c-10,19.3-20,38.7-30,58c0.7-18.3,1.3-36.7,2-55
				c-15.2,14.3-30.4,28.6-45.5,42.9L557,479l70-95V404z"/>
		</defs>
		<defs>
			<polygon id="SVGID_4_" points="450,397.3 448.3,484.4 409.9,539.7 423.5,478.9 368,556 394.5,488 368,513.4 380.8,474.4 450,381 
							"/>
		</defs>
		<defs>
			<path id="SVGID_5_" d="M304,464.5c0,12.2,0,24.3,0,36.5c-13.3,21.7-26.7,43.3-40,65c3.3-19,6.7-38,10-57c-11.3,11-22.7,22-34,33
				c4.3-11.5,8.7-23,13-34.6l51-63.4V464.5z"/>
		</defs>
		<defs>
			<path id="SVGID_6_" d="M203,499c0,7,0,14,0,21c-14.7,19-29.3,38-44,57l15.9-47.1l-28.7,31.5c2.6-10.1,5.2-20.2,7.8-30.4
				c16.3-18,32.7-36,49-54V499z"/>
		</defs>
		<defs>
			<path id="SVGID_7_" d="M991,453c-4.9,19.7-9.8,39.4-14.6,59c-12.8,11.6-25.6,23.3-38.4,34.9c5.3-11.6,10.6-23.3,16-34.9
				c-11.7,6-23.3,12-35,17.9c9.3-12.7,18.7-25.3,28-38c14.7-18.3,29.3-36.7,44-55V453z"/>
		</defs>
		<defs>
			<path id="SVGID_8_" d="M1109,511c0,8,0,16,0,24c-3.3,10.3-6.7,20.7-10,31c-2.4-6.3-4.9-12.7-7.3-19c-6.6,4.3-13.1,8.7-19.7,13
				c5-10.7,10-21.3,15-32c7.3-10.7,14.7-21.3,22-32V511z"/>
		</defs>
		<defs>
			<path id="SVGID_9_" d="M718,341c0,13,0,26,0,39c0,11,0,22,0,33c-15.7,24.3-31.3,48.7-47,73c7-25.7,14-51.3,21-77
				c-11,7.3-22,14.7-33,22c8.2-17.7,17.8-36.5,29-56c10-17.4,20.1-33.4,30-48V341z"/>
		</defs>
		<use xlink:href="#SVGID_2_"  style="overflow:visible;fill:#FFFFFF;"/>
		<use xlink:href="#SVGID_3_"  style="overflow:visible;fill:#FFFFFF;"/>
		<use xlink:href="#SVGID_4_"  style="overflow:visible;fill:#FFFFFF;"/>
		<use xlink:href="#SVGID_5_"  style="overflow:visible;fill:#FFFFFF;"/>
		<use xlink:href="#SVGID_6_"  style="overflow:visible;fill:#FFFFFF;"/>
		<use xlink:href="#SVGID_7_"  style="overflow:visible;fill:#FFFFFF;"/>
		<use xlink:href="#SVGID_8_"  style="overflow:visible;fill:#FFFFFF;"/>
		<use xlink:href="#SVGID_9_"  style="overflow:visible;fill:#FFFFFF;"/>
		<clipPath id="SVGID_10_">
			<use xlink:href="#SVGID_2_"  style="overflow:visible;"/>
		</clipPath>
		<clipPath id="SVGID_11_" class="st3">
			<use xlink:href="#SVGID_3_"  style="overflow:visible;"/>
		</clipPath>
		<clipPath id="SVGID_12_" class="st4">
			<use xlink:href="#SVGID_4_"  style="overflow:visible;"/>
		</clipPath>
		<clipPath id="SVGID_13_" class="st5">
			<use xlink:href="#SVGID_5_"  style="overflow:visible;"/>
		</clipPath>
		<clipPath id="SVGID_14_" class="st6">
			<use xlink:href="#SVGID_6_"  style="overflow:visible;"/>
		</clipPath>
		<clipPath id="SVGID_15_" class="st7">
			<use xlink:href="#SVGID_7_"  style="overflow:visible;"/>
		</clipPath>
		<clipPath id="SVGID_16_" class="st8">
			<use xlink:href="#SVGID_8_"  style="overflow:visible;"/>
		</clipPath>
		<clipPath id="SVGID_17_" class="st9">
			<use xlink:href="#SVGID_9_"  style="overflow:visible;"/>
		</clipPath>
		<g class="st10">
			<polygon class="st11" points="180,596.5 304.2,465.5 414.9,596.5 			"/>
			<polygon class="st11" points="286.6,596 449.7,399.1 626.6,596 			"/>
			<polygon class="st11" points="624.7,403.7 806.1,544.4 508.4,563.7 			"/>
			<polygon class="st11" points="718.3,341 974.1,595.5 561,596 			"/>
			<polygon class="st11" points="706.9,534.5 812.1,376.6 1005.6,555.9 			"/>
			<polygon class="st11" points="991.2,453 1123.3,576.5 845.1,586.6 			"/>
			<polygon class="st11" points="203.1,498.9 247.4,595.7 114.4,596.3 			"/>
			<polygon class="st11" points="1039.3,593.5 1108.7,510.8 1191.8,595.8 			"/>
		</g>
	</g>
	<path class="st12" d="M965,300"/>
	<path class="st12" d="M1038,350"/>
	<polygon class="st12" points="814,417 814,477 800,505 794.3,477 	"/>
	<path class="st12" d="M718,417c0,16.3,0,32.7,0,49c-5.3-11.3-10.7-22.7-16-34c5.3-12.6,10.7-25.2,16-37.8V417z"/>
	<polygon class="st12" points="627,406 627,518 611.3,486 	"/>
	<polygon class="st12" points="203,496 203,556 189.7,535 	"/>
	<polygon class="st12" points="304,492 304,538 295.4,515 	"/>
	<polygon class="st12" points="991,453 991,538 976,512 	"/>
	<path class="st12" d="M236,773"/>
</g>
<path class="st12" d="M630,749"/>
</svg>
